<svg width="71" height="71" viewBox="0 0 71 71" fill="none" xmlns="http://www.w3.org/2000/svg">
<path fill-rule="evenodd" clip-rule="evenodd" d="M18.7443 23.0208C18.3684 24.6257 18.1669 26.2419 18.1319 27.8506C17.9963 34.0799 20.376 40.1315 24.9256 44.6711C29.4753 49.2107 35.5404 51.5849 41.7875 51.4496C41.8728 49.7559 42.1208 48.0506 42.5161 46.3609C42.6788 45.6494 42.799 44.938 42.8688 44.2303C39.4972 44.559 36.1681 43.832 33.2848 42.1538C32.1029 41.4656 30.9945 40.6187 29.9947 39.6171C28.9909 38.6157 28.1383 37.5136 27.4523 36.3342C25.7665 33.4573 25.038 30.1319 25.3713 26.7717C25.441 26.0601 25.5574 25.3486 25.724 24.6411C26.1153 22.9513 26.3673 21.2421 26.4526 19.5485C26.7742 13.1064 24.7164 6.8731 19.1744 2.6699C17.605 1.4789 15.3495 1.7843 14.1557 3.3504C12.9622 4.9204 13.2683 7.1708 14.8379 8.3619C15.8223 9.1081 16.6206 9.9549 17.2522 10.8753C19.1744 13.6671 19.6008 17.1473 19.1783 20.5925C19.0776 21.4084 18.9303 22.2205 18.7443 23.0208Z" fill="#33F5BB"/>
<path fill-rule="evenodd" clip-rule="evenodd" d="M49.0618 50.4095C52.511 49.9841 55.9988 50.4133 58.8006 52.3273C59.723 52.9616 60.5718 53.7581 61.3196 54.7363C62.5134 56.3063 64.7689 56.6118 66.3383 55.4207C67.9118 54.226 68.2179 51.9756 67.0243 50.4095C62.8118 44.8799 56.5607 42.8304 50.1043 43.1515C50.0693 44.7561 49.8679 46.3726 49.4958 47.9811C49.3059 48.7815 49.1586 49.5935 49.0618 50.4095Z" fill="#33F5BB"/>
<path fill-rule="evenodd" clip-rule="evenodd" d="M40.7878 34.6676C42.4697 37.5444 43.1983 40.866 42.869 44.2301C42.7991 44.9377 42.6789 45.6492 42.5162 46.3607C42.121 48.0506 41.873 49.7558 41.7875 51.4495C41.4659 57.8916 43.5199 64.1287 49.0619 68.3318C50.6313 69.5229 52.8867 69.2175 54.0844 67.6475C55.278 66.0814 54.9718 63.831 53.3983 62.6399C52.4178 61.8937 51.6196 61.0469 50.984 60.1265C49.0657 57.3309 48.6355 53.8507 49.0619 50.4094C49.1587 49.5934 49.3059 48.7813 49.4957 47.981C49.8679 46.3723 50.0694 44.756 50.1044 43.1512C50.2438 36.918 47.8603 30.8665 43.3107 26.3269C38.761 21.7873 32.6958 19.413 26.4526 19.5484C26.3673 21.2421 26.1154 22.9512 25.724 24.6409C25.5575 25.3485 25.4411 26.06 25.3713 26.7715C28.7391 26.439 32.072 27.1659 34.9553 28.848C36.1372 29.5324 37.2417 30.3831 38.2454 31.3847C39.2492 32.3823 40.0979 33.4882 40.7878 34.6676Z" fill="#FF7B79"/>
<path fill-rule="evenodd" clip-rule="evenodd" d="M1.21592 20.5886C5.42842 26.118 11.6757 28.1713 18.1319 27.8504C18.1669 26.2417 18.3685 24.6255 18.7443 23.0208C18.9304 22.2203 19.0776 21.4083 19.1784 20.5924C15.7254 21.0139 12.2374 20.5886 9.43951 18.6707C8.51701 18.0403 7.66842 17.2437 6.92062 16.2615C5.72682 14.6954 3.47131 14.39 1.89791 15.5811C0.328415 16.7719 0.0223153 19.0224 1.21592 20.5886Z" fill="#FF7B79"/>
<path fill-rule="evenodd" clip-rule="evenodd" d="M47.6549 15.3024L49.2014 17.9743H52.2898L55.3824 17.9705L56.9289 15.3024L58.4751 12.6305L56.9289 9.9585L55.3824 7.2866H52.2898H49.2014L47.6549 9.9585L46.1087 12.6305L47.6549 15.3024Z" fill="#2D9CDB"/>
<path fill-rule="evenodd" clip-rule="evenodd" d="M56.9289 9.9585L58.4752 12.6304H61.5677H64.6603L66.2066 9.9585L67.7529 7.2866L66.2066 4.6146L64.6603 1.9427H61.5677H58.4752L56.9289 4.6146L55.3825 7.2866L56.9289 9.9585Z" fill="#FFF200"/>
<path fill-rule="evenodd" clip-rule="evenodd" d="M56.9289 20.6425L58.4752 23.3144H61.5678H64.6603L66.2066 20.6425L67.7529 17.9706L66.2066 15.3024L64.6603 12.6305H61.5678H58.4752L56.9289 15.3024L55.3825 17.9706L56.9289 20.6425Z" fill="#99EBFA"/>
<path fill-rule="evenodd" clip-rule="evenodd" d="M12.8881 52.4653C12.8881 54.4993 14.539 56.1465 16.5737 56.1465C18.6121 56.1465 20.263 54.4993 20.263 52.4653C20.263 50.4352 18.6121 48.788 16.5737 48.788C14.539 48.788 12.8881 50.4352 12.8881 52.4653Z" fill="#FFF200"/>
<path fill-rule="evenodd" clip-rule="evenodd" d="M55.9716 34.4355C55.9716 36.4695 57.6225 38.1166 59.6609 38.1166C61.6956 38.1166 63.3465 36.4695 63.3465 34.4355C63.3465 32.4053 61.6956 30.7582 59.6609 30.7582C57.6225 30.7582 55.9716 32.4053 55.9716 34.4355Z" fill="#FFBDBC"/>
<path d="M58.4752 12.6308H64.6604M58.4752 12.6308L55.3827 17.9708M58.4752 12.6308L55.3827 7.2869M64.6604 12.6308L67.753 17.9708L64.6604 23.3148M64.6604 12.6308L67.753 7.2869L64.6604 1.9429H58.4752L55.3827 7.2869M55.3827 17.9708L58.4752 23.3148H64.6604M55.3827 17.9708L52.2901 17.9747H49.2015L46.1089 12.6307M55.3827 7.2869L49.2015 7.2868L46.1089 12.6307M64.6604 23.3148L67.753 28.6586M46.1089 12.6307H39.9237" stroke="#2B4182" stroke-width="1.95312" stroke-miterlimit="10" stroke-linecap="round" stroke-linejoin="round"/>
<path d="M26.7389 26.7715C31.4863 26.3037 36.1601 27.9394 39.613 31.3847C43.5814 35.3442 45.1511 40.9163 43.8837 46.3607C41.9887 54.4733 43.4304 63.0228 50.4294 68.3318C51.9989 69.5229 54.2544 69.2174 55.452 67.6476C56.6456 66.0814 56.3395 63.8309 54.766 62.6399C50.1037 59.098 49.6233 53.2862 50.8633 47.981C52.6926 40.1352 50.4022 32.0381 44.6783 26.3269C40.1286 21.7872 34.0635 19.413 27.8202 19.5482M20.546 20.5924C15.9536 21.1531 11.2993 20.2134 8.28824 16.2615C7.09434 14.6954 4.83894 14.39 3.26574 15.5809C1.69604 16.7719 1.38994 19.0224 2.58344 20.5885C6.79604 26.118 13.0432 28.1712 19.4997 27.8504M50.4294 50.4094C55.018 49.8449 59.6761 50.7844 62.6872 54.7363C63.8811 56.3062 66.1365 56.6118 67.7059 55.4207C69.2794 54.2259 69.5855 51.9755 68.3919 50.4094C64.1794 44.8798 57.9283 42.8304 51.4719 43.1514M31.0833 48.3522C34.7416 50.475 38.9079 51.5424 43.1552 51.4496M44.2365 44.2303C39.4852 44.6943 34.8153 43.0624 31.3624 39.6171C27.39 35.6536 25.8205 30.0855 27.0917 24.6409C28.9828 16.5285 27.5412 7.9789 20.5422 2.6698C18.9726 1.4789 16.7172 1.7843 15.5235 3.3504C14.3298 4.9204 14.6359 7.1707 16.2056 8.3618C20.8717 11.9 21.3483 17.7156 20.1119 23.0208C18.7555 28.8326 19.6624 34.7875 22.5534 39.8066M28.82 36.3342L36.3228 28.8481M34.6525 42.1537L42.1554 34.6677M10.8072 18.6707L18.62 10.8751M52.3516 60.1267L60.1682 52.3274M61.0284 38.1168C63.0592 38.1168 64.7139 36.4618 64.7139 34.4356C64.7139 32.4093 63.0592 30.7583 61.0284 30.7583C58.9977 30.7583 57.339 32.4093 57.339 34.4356C57.339 36.4618 58.9977 38.1168 61.0284 38.1168Z" stroke="#2B4182" stroke-width="1.95312" stroke-miterlimit="10" stroke-linecap="round" stroke-linejoin="round"/>
<path d="M16.5737 56.147C18.6045 56.147 20.2631 54.4921 20.2631 52.4659C20.2631 50.4396 18.6045 48.7886 16.5737 48.7886C14.5429 48.7886 12.8882 50.4396 12.8882 52.4659C12.8882 54.4921 14.5429 56.147 16.5737 56.147Z" stroke="#2B4182" stroke-width="1.95312" stroke-miterlimit="10" stroke-linecap="round" stroke-linejoin="round"/>
</svg>
