<svg width="71" height="53" viewBox="0 0 71 53" fill="none" xmlns="http://www.w3.org/2000/svg">
<path d="M65.5086 48.1791H61.033V13.5656H65.5086V48.1791Z" fill="#FB8627"/>
<path d="M65.5086 19.3679H61.033V13.5658H65.5086V19.3679Z" fill="#F2681F"/>
<path d="M31.668 19.3679H27.1924V13.5658H31.668V19.3679Z" fill="#F2681F"/>
<path fill-rule="evenodd" clip-rule="evenodd" d="M31.6676 49.2048C32.2339 49.2048 32.693 48.7457 32.693 48.1794V13.5655C32.693 12.9992 32.2339 12.5401 31.6676 12.5401C31.1013 12.5401 30.6422 12.9992 30.6422 13.5655V48.1794C30.6422 48.7457 31.1013 49.2048 31.6676 49.2048Z" fill="#2B4182"/>
<path fill-rule="evenodd" clip-rule="evenodd" d="M65.5084 49.2047C66.0747 49.2047 66.5338 48.7456 66.5338 48.1793V13.5654C66.5338 12.9991 66.0747 12.54 65.5084 12.54C64.9421 12.54 64.483 12.9991 64.483 13.5654V48.1793C64.483 48.7456 64.9421 49.2047 65.5084 49.2047Z" fill="#2B4182"/>
<path fill-rule="evenodd" clip-rule="evenodd" d="M61.0327 49.2047C61.599 49.2047 62.0581 48.7456 62.0581 48.1793V13.5654C62.0581 12.9991 61.599 12.54 61.0327 12.54C60.4664 12.54 60.0073 12.9991 60.0073 13.5654V48.1793C60.0073 48.7456 60.4664 49.2047 61.0327 49.2047Z" fill="#2B4182"/>
<path d="M31.6679 48.1793H27.1923V13.5658H31.6679V48.1793Z" fill="#FB8627"/>
<path fill-rule="evenodd" clip-rule="evenodd" d="M27.192 49.2047C27.7583 49.2047 28.2174 48.7456 28.2174 48.1793V13.5654C28.2174 12.999 27.7583 12.54 27.192 12.54C26.6257 12.54 26.1666 12.999 26.1666 13.5654V48.1793C26.1666 48.7456 26.6257 49.2047 27.192 49.2047Z" fill="#2B4182"/>
<path d="M55.7875 36.932C52.8907 36.932 50.5424 34.5837 50.5424 31.687V5.02155H61.0325V31.687C61.0325 34.5837 58.6842 36.932 55.7875 36.932Z" fill="#C4E1FF"/>
<path d="M61.0331 5.02161V31.6865C61.0331 34.5835 58.6839 36.9326 55.7872 36.9326C55.0815 36.9326 54.407 36.7931 53.7915 36.5396C55.6984 35.7538 57.0405 33.8765 57.0405 31.6865V5.02161H61.0331Z" fill="#8DCAFC"/>
<path d="M50.5425 14.5753V31.6877C50.5425 34.5845 52.8908 36.9326 55.7876 36.9326C58.6843 36.9326 61.0326 34.5845 61.0326 31.6877V14.5753H50.5425Z" fill="#5169CD"/>
<path d="M61.0325 14.5748H50.5424V19.3687H61.0325V14.5748Z" fill="#3351C5"/>
<path d="M61.0331 14.5747V31.6865C61.0331 34.5835 58.6839 36.9326 55.7872 36.9326C55.0815 36.9326 54.407 36.7931 53.7915 36.5396C55.6984 35.7538 57.0405 33.8765 57.0405 31.6865V14.5747H61.0331Z" fill="#3351C5"/>
<path fill-rule="evenodd" clip-rule="evenodd" d="M49.517 14.5748C49.517 15.1411 49.9761 15.6002 50.5424 15.6002H61.0324C61.5988 15.6002 62.0578 15.1411 62.0578 14.5748C62.0578 14.0085 61.5988 13.5494 61.0324 13.5494H50.5424C49.9761 13.5494 49.517 14.0085 49.517 14.5748Z" fill="#2B4182"/>
<path fill-rule="evenodd" clip-rule="evenodd" d="M55.7876 35.907C53.4571 35.907 51.5679 34.0179 51.5679 31.6875V27.1423C51.5679 26.576 51.1089 26.1169 50.5425 26.1169C49.9762 26.1169 49.5172 26.576 49.5172 27.1423V31.6875C49.5172 35.1506 52.3246 37.9578 55.7876 37.9578C59.2506 37.9578 62.058 35.1506 62.058 31.6875V5.02204C62.058 4.45574 61.5989 3.99664 61.0326 3.99664H50.5425C49.9762 3.99664 49.5172 4.45574 49.5172 5.02204V22.5864C49.5172 23.1527 49.9762 23.6118 50.5425 23.6118C51.1089 23.6118 51.5679 23.1527 51.5679 22.5864V6.04744H60.0072V31.6875C60.0072 34.018 58.118 35.907 55.7876 35.907Z" fill="#2B4182"/>
<path d="M60.9213 6.24452H50.6538C49.2705 6.24452 48.149 5.12302 48.149 3.73972C48.149 2.35642 49.2705 1.23462 50.6538 1.23462H60.9213C62.3047 1.23462 63.4261 2.35622 63.4261 3.73952C63.4261 5.12282 62.3047 6.24452 60.9213 6.24452Z" fill="#EAF6FF"/>
<path d="M63.4255 3.74025C63.4255 4.43185 63.1453 5.05775 62.6923 5.51065C62.2393 5.96375 61.6134 6.24385 60.9219 6.24385H57.5795C58.271 6.24385 58.8969 5.96375 59.3517 5.51065C59.8046 5.05775 60.0848 4.43185 60.0848 3.74025C60.0848 2.35565 58.9626 1.23505 57.5795 1.23505H60.9219C62.3049 1.23505 63.4255 2.35565 63.4255 3.74025Z" fill="#C4E1FF"/>
<path fill-rule="evenodd" clip-rule="evenodd" d="M47.1237 3.73973C47.1237 5.68933 48.7043 7.26993 50.6539 7.26993H60.9214C62.8712 7.26993 64.4516 5.68933 64.4516 3.73973C64.4516 1.79023 62.8712 0.209229 60.9214 0.209229H50.6539C48.7042 0.209229 47.1237 1.79023 47.1237 3.73973ZM50.6539 5.21913C49.8369 5.21913 49.1745 4.55673 49.1745 3.73973C49.1745 2.92273 49.837 2.26003 50.6539 2.26003H60.9214C61.7384 2.26003 62.4008 2.92242 62.4008 3.73952C62.4008 4.55652 61.7385 5.21913 60.9214 5.21913H50.6539Z" fill="#2B4182"/>
<path fill-rule="evenodd" clip-rule="evenodd" d="M54.4553 21.4488C54.4553 22.0151 54.9144 22.4742 55.4807 22.4742H56.1591C56.7254 22.4742 57.1845 22.0151 57.1845 21.4488C57.1845 20.8825 56.7254 20.4234 56.1591 20.4234H55.4807C54.9144 20.4234 54.4553 20.8825 54.4553 21.4488Z" fill="#2B4182"/>
<path fill-rule="evenodd" clip-rule="evenodd" d="M56.0477 26.1868C56.0477 26.7531 56.5068 27.2122 57.0731 27.2122H57.7515C58.3178 27.2122 58.7768 26.7531 58.7768 26.1868C58.7768 25.6205 58.3178 25.1614 57.7515 25.1614H57.0731C56.5068 25.1614 56.0477 25.6205 56.0477 26.1868Z" fill="#2B4182"/>
<path fill-rule="evenodd" clip-rule="evenodd" d="M53.7769 31.8894C53.7769 32.4557 54.2359 32.9148 54.8022 32.9148H55.4806C56.0469 32.9148 56.506 32.4557 56.506 31.8894C56.506 31.3231 56.0469 30.864 55.4806 30.864H54.8022C54.2359 30.864 53.7769 31.3231 53.7769 31.8894Z" fill="#2B4182"/>
<path d="M36.9129 36.932C34.0162 36.932 31.6678 34.5837 31.6678 31.687V5.02155H42.1578V31.687C42.1578 34.5837 39.8095 36.932 36.9129 36.932Z" fill="#C4E1FF"/>
<path d="M42.1585 5.02155V31.6865C42.1585 34.5834 39.8094 36.9325 36.9125 36.9325C36.2069 36.9325 35.5323 36.793 34.9169 36.5396C36.8237 35.7537 38.1659 33.8764 38.1659 31.6865V5.02155H42.1585Z" fill="#8DCAFC"/>
<path d="M31.6679 14.5753V31.6877C31.6679 34.5845 34.0161 36.9326 36.9129 36.9326C39.8096 36.9326 42.1579 34.5845 42.1579 31.6877V14.5753H31.6679Z" fill="#5169CD"/>
<path d="M42.1578 14.5748H31.6678V19.3687H42.1578V14.5748Z" fill="#3351C5"/>
<path d="M42.1585 14.5746V31.6865C42.1585 34.5834 39.8094 36.9325 36.9125 36.9325C36.2069 36.9325 35.5323 36.793 34.9169 36.5396C36.8237 35.7537 38.1659 33.8764 38.1659 31.6865V14.5746H42.1585Z" fill="#3351C5"/>
<path fill-rule="evenodd" clip-rule="evenodd" d="M30.6423 14.5748C30.6423 15.1411 31.1014 15.6002 31.6677 15.6002H42.1577C42.724 15.6002 43.1831 15.1411 43.1831 14.5748C43.1831 14.0085 42.724 13.5494 42.1577 13.5494H31.6677C31.1014 13.5494 30.6423 14.0085 30.6423 14.5748Z" fill="#2B4182"/>
<path fill-rule="evenodd" clip-rule="evenodd" d="M30.6425 31.687C30.6425 35.15 33.4501 37.9574 36.913 37.9574C40.376 37.9574 43.1833 35.15 43.1833 31.687V5.02155C43.1833 4.45525 42.7242 3.99615 42.1579 3.99615H31.6679C31.1016 3.99615 30.6425 4.45525 30.6425 5.02155V31.687ZM36.913 35.9067C34.5826 35.9067 32.6933 34.0173 32.6933 31.687V6.04696H41.1325V31.687C41.1325 34.0174 39.2433 35.9067 36.913 35.9067Z" fill="#2B4182"/>
<path d="M42.0465 6.24452H31.779C30.3957 6.24452 29.2742 5.12302 29.2742 3.73972C29.2742 2.35642 30.3957 1.23462 31.779 1.23462H42.0465C43.4299 1.23462 44.5513 2.35622 44.5513 3.73952C44.5513 5.12282 43.4299 6.24452 42.0465 6.24452Z" fill="#EAF6FF"/>
<path d="M44.5508 3.74025C44.5508 4.43185 44.2706 5.05775 43.8175 5.51065C43.3646 5.96375 42.7387 6.24385 42.0472 6.24385H38.7048C39.3963 6.24385 40.0222 5.96375 40.477 5.51065C40.9299 5.05775 41.21 4.43185 41.21 3.74025C41.21 2.35565 40.0879 1.23505 38.7048 1.23505H42.0472C43.4302 1.23505 44.5508 2.35565 44.5508 3.74025Z" fill="#C4E1FF"/>
<path fill-rule="evenodd" clip-rule="evenodd" d="M28.2488 3.73973C28.2488 5.68933 29.8294 7.26993 31.779 7.26993H42.0465C43.9963 7.26993 45.5767 5.68933 45.5767 3.73973C45.5767 1.79023 43.9963 0.209229 42.0465 0.209229H31.779C29.8293 0.209229 28.2488 1.79023 28.2488 3.73973ZM31.779 5.21913C30.962 5.21913 30.2996 4.55673 30.2996 3.73973C30.2996 2.92273 30.9621 2.26003 31.779 2.26003H42.0465C42.8635 2.26003 43.5259 2.92242 43.5259 3.73952C43.5259 4.55652 42.8636 5.21913 42.0465 5.21913H31.779Z" fill="#2B4182"/>
<path fill-rule="evenodd" clip-rule="evenodd" d="M35.5807 21.4492C35.5807 22.0155 36.0398 22.4746 36.6061 22.4746H37.2845C37.8508 22.4746 38.3099 22.0155 38.3099 21.4492C38.3099 20.8829 37.8508 20.4238 37.2845 20.4238H36.6061C36.0398 20.4238 35.5807 20.8829 35.5807 21.4492Z" fill="#2B4182"/>
<path fill-rule="evenodd" clip-rule="evenodd" d="M37.173 26.1868C37.173 26.7531 37.6321 27.2122 38.1984 27.2122H38.8768C39.4431 27.2122 39.9022 26.7531 39.9022 26.1868C39.9022 25.6205 39.4431 25.1614 38.8768 25.1614H38.1984C37.6321 25.1614 37.173 25.6205 37.173 26.1868Z" fill="#2B4182"/>
<path fill-rule="evenodd" clip-rule="evenodd" d="M34.9022 31.8896C34.9022 32.4559 35.3613 32.915 35.9276 32.915H36.606C37.1723 32.915 37.6314 32.4559 37.6314 31.8896C37.6314 31.3233 37.1723 30.8642 36.606 30.8642H35.9276C35.3613 30.8642 34.9022 31.3233 34.9022 31.8896Z" fill="#2B4182"/>
<path d="M67.6864 16.2963H25.0144C24.2366 16.2963 23.6061 15.6657 23.6061 14.8879V12.2431C23.6061 11.4652 24.2366 10.8348 25.0144 10.8348H67.6864C68.4642 10.8348 69.0947 11.4652 69.0947 12.2431V14.8879C69.0947 15.6657 68.4642 16.2963 67.6864 16.2963Z" fill="#FCB982"/>
<path d="M69.0948 12.2431V14.8879C69.0948 15.6653 68.4639 16.2962 67.6865 16.2962H63.3588C64.1375 16.2962 64.7671 15.6653 64.7671 14.8879V12.2431C64.7671 11.4655 64.1375 10.8347 63.3588 10.8347H67.6865C68.4639 10.8347 69.0948 11.4655 69.0948 12.2431Z" fill="#FC9744"/>
<path fill-rule="evenodd" clip-rule="evenodd" d="M25.0146 15.2714C24.8031 15.2714 24.6316 15.1 24.6316 14.8885V12.2437C24.6316 12.0321 24.803 11.8607 25.0146 11.8607H67.6865C67.8981 11.8607 68.0695 12.0321 68.0695 12.2437V14.8885C68.0695 15.1 67.898 15.2714 67.6865 15.2714H39.3167C38.7504 15.2714 38.2913 15.7305 38.2913 16.2968C38.2913 16.8631 38.7504 17.3222 39.3167 17.3222H67.6865C69.0306 17.3222 70.1203 16.2326 70.1203 14.8885V12.2437C70.1203 10.8993 69.0306 9.80994 67.6865 9.80994H25.0146C23.6705 9.80994 22.5808 10.8993 22.5808 12.2437V14.8885C22.5808 16.2326 23.6705 17.3222 25.0146 17.3222H34.7607C35.327 17.3222 35.7861 16.8631 35.7861 16.2968C35.7861 15.7305 35.327 15.2714 34.7607 15.2714H25.0146Z" fill="#2B4182"/>
<path d="M67.6864 51.7665H25.0144C24.2366 51.7665 23.6061 51.136 23.6061 50.3582V47.7134C23.6061 46.9354 24.2366 46.305 25.0144 46.305H67.6864C68.4642 46.305 69.0947 46.9354 69.0947 47.7134V50.3582C69.0947 51.136 68.4642 51.7665 67.6864 51.7665Z" fill="#FCB982"/>
<path d="M69.0948 47.7134V50.3582C69.0948 51.1356 68.4639 51.7665 67.6865 51.7665H63.3588C64.1376 51.7665 64.7671 51.1356 64.7671 50.3582V47.7134C64.7671 46.936 64.1376 46.305 63.3588 46.305H67.6865C68.4639 46.305 69.0948 46.936 69.0948 47.7134Z" fill="#FC9744"/>
<path fill-rule="evenodd" clip-rule="evenodd" d="M25.0145 50.7411C24.8031 50.7411 24.6315 50.5697 24.6315 50.3582V47.7134C24.6315 47.5018 24.803 47.3304 25.0145 47.3304H67.6865C67.8981 47.3304 68.0694 47.5018 68.0694 47.7134V50.3582C68.0694 50.5697 67.898 50.7411 67.6865 50.7411H25.0145ZM22.5807 50.3582C22.5807 51.7023 23.6704 52.7919 25.0145 52.7919H67.6865C69.0306 52.7919 70.1202 51.7023 70.1202 50.3582V47.7134C70.1202 46.3691 69.0305 45.2796 67.6865 45.2796H25.0145C23.6705 45.2796 22.5807 46.3691 22.5807 47.7134V50.3582Z" fill="#2B4182"/>
<path d="M23.8273 23.5958V9.05573H12.9391V23.5958L1.54845 46.3281C0.297049 48.8257 2.11285 51.7667 4.90625 51.7667H31.8601C34.6535 51.7667 36.4694 48.8257 35.2179 46.3281L23.8273 23.5958Z" fill="#C4E1FF"/>
<path d="M23.8271 9.05585H12.939V15.616H23.8271V9.05585Z" fill="#8DCAFC"/>
<path d="M31.8598 51.7659H30.0657C31.4327 50.7331 32.0281 48.8008 31.1661 47.0787L19.7747 24.3467V9.05621H23.828V23.5955L35.2177 46.3276C36.4701 48.825 34.6541 51.7659 31.8598 51.7659Z" fill="#8DCAFC"/>
<path d="M30.7616 37.4349H6.00453L1.54833 46.3281C0.296927 48.8256 2.11273 51.7665 4.90613 51.7665H31.86C34.6534 51.7665 36.4693 48.8256 35.2178 46.3281L30.7616 37.4349Z" fill="#64E0C4"/>
<path d="M19.3087 37.4348C19.3087 39.4267 17.6938 41.0416 15.7019 41.0416C13.71 41.0416 12.0952 39.4267 12.0952 37.4348C12.0952 35.4429 13.71 33.8279 15.7019 33.8279C17.6938 33.8279 19.3087 35.4429 19.3087 37.4348Z" fill="#EAF6FF"/>
<path d="M19.3087 37.4348C19.3087 39.4267 17.6938 41.0416 15.7019 41.0416C13.71 41.0416 12.0952 39.4267 12.0952 37.4348H19.3087Z" fill="#C7F1E6"/>
<path d="M30.762 37.435H26.3334L31.1661 47.0787C32.028 48.8008 31.4327 50.7332 30.0655 51.7658H31.8597C34.6541 51.7658 36.47 48.8251 35.2175 46.3275L30.762 37.435Z" fill="#27D1B3"/>
<path fill-rule="evenodd" clip-rule="evenodd" d="M2.46504 46.7874L10.0242 31.7018C10.2779 31.1955 10.0731 30.5794 9.56684 30.3257C9.06054 30.072 8.44444 30.2767 8.19074 30.783L0.631637 45.8687C-0.961463 49.048 1.35024 52.7919 4.90624 52.7919H31.8599C35.4162 52.7919 37.7276 49.048 36.1346 45.8687L24.8525 23.3531V9.05573C24.8525 8.48943 24.3935 8.03033 23.8272 8.03033H12.939C12.3727 8.03033 11.9136 8.48943 11.9136 9.05573V23.3531L10.2364 26.7004C9.98284 27.2067 10.1875 27.8228 10.6939 28.0765C11.2002 28.3301 11.8163 28.1253 12.0699 27.619L13.8558 24.0549C13.9272 23.9123 13.9644 23.7551 13.9644 23.5956V10.0811H22.8018V23.5956C22.8018 23.7551 22.839 23.9123 22.9104 24.0549L34.3011 46.7874C35.2109 48.6031 33.8909 50.7411 31.8599 50.7411H4.90624C2.87544 50.7411 1.55534 48.603 2.46504 46.7874Z" fill="#2B4182"/>
<path d="M24.4057 12.4388H12.3606C10.7378 12.4388 9.42206 11.1231 9.42206 9.50035C9.42206 7.87735 10.7378 6.56165 12.3606 6.56165H24.4057C26.0287 6.56165 27.3443 7.87735 27.3443 9.50035C27.3443 11.1231 26.0287 12.4388 24.4057 12.4388Z" fill="#EAF6FF"/>
<path d="M27.3435 9.50164C27.3435 10.3129 27.0149 11.0472 26.4834 11.5785C25.952 12.1101 25.2177 12.4386 24.4065 12.4386H20.4855C21.2967 12.4386 22.0311 12.1101 22.5644 11.5785C23.0958 11.0472 23.4244 10.3129 23.4244 9.50164C23.4244 7.87734 22.108 6.56274 20.4855 6.56274H24.4065C26.029 6.56274 27.3435 7.87734 27.3435 9.50164Z" fill="#C4E1FF"/>
<path fill-rule="evenodd" clip-rule="evenodd" d="M8.39685 9.5008C8.39685 11.69 10.1716 13.4647 12.3608 13.4647H24.4058C26.5951 13.4647 28.3698 11.69 28.3698 9.5008C28.3698 7.3115 26.5951 5.5368 24.4058 5.5368H12.3608C10.1716 5.5368 8.39685 7.3115 8.39685 9.5008ZM12.3608 11.4139C11.3042 11.4139 10.4477 10.5573 10.4477 9.5008C10.4477 8.4441 11.3042 7.5876 12.3608 7.5876H24.4058C25.4625 7.5876 26.3191 8.4441 26.3191 9.5008C26.3191 10.5573 25.4625 11.4139 24.4058 11.4139H12.3608Z" fill="#2B4182"/>
<path fill-rule="evenodd" clip-rule="evenodd" d="M4.97925 37.4349C4.97925 38.0012 5.43835 38.4603 6.00465 38.4603H30.7616C31.3279 38.4603 31.787 38.0012 31.787 37.4349C31.787 36.8686 31.3279 36.4095 30.7616 36.4095H6.00465C5.43835 36.4095 4.97925 36.8686 4.97925 37.4349Z" fill="#2B4182"/>
<path fill-rule="evenodd" clip-rule="evenodd" d="M7.62726 44.6023C7.62726 45.1686 8.08636 45.6277 8.65266 45.6277H9.33106C9.89736 45.6277 10.3565 45.1686 10.3565 44.6023C10.3565 44.036 9.89736 43.5769 9.33106 43.5769H8.65266C8.08636 43.5769 7.62726 44.036 7.62726 44.6023Z" fill="#2B4182"/>
<path fill-rule="evenodd" clip-rule="evenodd" d="M11.0698 37.4348C11.0698 39.993 13.1436 42.067 15.7019 42.067C18.2601 42.067 20.3341 39.993 20.3341 37.4348C20.3341 34.8766 18.2601 32.8025 15.7019 32.8025C13.1436 32.8025 11.0698 34.8766 11.0698 37.4348ZM15.7019 40.0162C14.2763 40.0162 13.1206 38.8604 13.1206 37.4348C13.1206 36.0091 14.2763 34.8533 15.7019 34.8533C17.1275 34.8533 18.2833 36.0091 18.2833 37.4348C18.2833 38.8604 17.1275 40.0162 15.7019 40.0162Z" fill="#2B4182"/>
<path fill-rule="evenodd" clip-rule="evenodd" d="M12.6934 46.8792C12.6934 47.4455 13.1525 47.9046 13.7188 47.9046H14.3972C14.9635 47.9046 15.4226 47.4455 15.4226 46.8792C15.4226 46.3129 14.9635 45.8538 14.3972 45.8538H13.7188C13.1525 45.8538 12.6934 46.3129 12.6934 46.8792Z" fill="#2B4182"/>
<path d="M26.2081 44.1354C26.2081 45.4504 25.1421 46.5164 23.8272 46.5164C22.5122 46.5164 21.4462 45.4504 21.4462 44.1354C21.4462 42.8206 22.5122 41.7546 23.8272 41.7546C25.1421 41.7546 26.2081 42.8206 26.2081 44.1354Z" fill="#C7F1E6"/>
<path fill-rule="evenodd" clip-rule="evenodd" d="M20.4208 44.1354C20.4208 46.0167 21.9459 47.5417 23.8272 47.5417C25.7084 47.5417 27.2335 46.0167 27.2335 44.1354C27.2335 42.2542 25.7084 40.7292 23.8272 40.7292C21.9459 40.7292 20.4208 42.2542 20.4208 44.1354ZM23.8272 45.491C23.0785 45.491 22.4716 44.8841 22.4716 44.1354C22.4716 43.3869 23.0785 42.78 23.8272 42.78C24.5758 42.78 25.1827 43.3869 25.1827 44.1354C25.1827 44.8841 24.5758 45.491 23.8272 45.491Z" fill="#2B4182"/>
</svg>
