<svg width="71" height="68" viewBox="0 0 71 68" fill="none" xmlns="http://www.w3.org/2000/svg">
<path d="M35.1198 66.6906C34.0093 66.6906 32.8982 66.5596 31.8173 66.3015C29.4023 65.7248 24.2062 64.7572 16.5412 64.7572C13.8563 64.7572 11.0556 64.8763 8.21682 65.1113C8.03732 65.1261 7.85502 65.1336 7.67522 65.1336C4.07452 65.1336 1.14502 62.2024 1.14502 58.5993V20.7475C1.14502 17.3284 3.71242 16.87 7.11702 16.5773C10.3261 16.3014 13.4967 16.1615 16.541 16.1615C26.1334 16.1615 32.4273 17.532 35.1196 18.27C37.8119 17.532 44.1059 16.1615 53.6982 16.1615C56.7425 16.1615 59.9132 16.3014 63.1223 16.5773C66.5268 16.8698 69.0942 17.3284 69.0942 20.7475V58.5991C69.0942 60.3501 68.4109 61.9945 67.1702 63.2298C65.937 64.4574 64.3011 65.1335 62.5643 65.1335C62.5646 65.1335 62.564 65.1335 62.5643 65.1335C62.3845 65.1335 62.202 65.1259 62.0224 65.1112C59.1836 64.8763 56.3831 64.7571 53.6981 64.7571C46.0331 64.7571 40.8369 65.7246 38.4216 66.3013C37.3413 66.5596 36.2302 66.6906 35.1198 66.6906Z" fill="#7FB2F9"/>
<path d="M63.1225 16.5773C59.9134 16.3014 56.7427 16.1615 53.6983 16.1615C44.2014 16.1615 37.9399 17.5044 35.2034 18.2473V66.6892C36.286 66.6828 37.3684 66.553 38.4219 66.3013C40.8371 65.7245 46.0333 64.7571 53.6983 64.7571C56.3832 64.7571 59.1839 64.8762 62.0226 65.1112C62.202 65.126 62.3841 65.1335 62.5639 65.1335C64.3009 65.1335 65.9371 64.4574 67.1702 63.2298C68.4109 61.9945 69.0942 60.3501 69.0942 58.5991V20.7475C69.0944 17.3284 66.5269 16.87 63.1225 16.5773Z" fill="#60A0F7"/>
<path opacity="0.3" d="M63.1225 16.5773C62.1258 16.4916 61.1336 16.4206 60.1469 16.3613V58.5992C60.1469 60.3501 59.4636 61.9946 58.2229 63.2298C57.5106 63.9389 56.6636 64.4626 55.7408 64.7797C57.7915 64.8242 59.8963 64.9353 62.0226 65.1112C62.202 65.126 62.3841 65.1335 62.5639 65.1335C64.3009 65.1335 65.9371 64.4574 67.1702 63.2298C68.4109 61.9946 69.0942 60.3501 69.0942 58.5992V20.7475C69.0944 17.3284 66.5269 16.87 63.1225 16.5773Z" fill="black"/>
<path d="M62.9456 12.5103C47.6202 11.1927 38.3328 13.4682 35.8165 14.2071C35.3617 14.3407 34.8778 14.3407 34.423 14.2071C31.9067 13.4682 22.6193 11.1927 7.29392 12.5103C6.16912 12.607 5.30582 13.5511 5.30582 14.68V58.3192C5.30582 59.5916 6.39312 60.594 7.66122 60.489C20.4616 59.4297 28.992 60.8799 32.8167 61.7932C34.3318 62.1551 35.9078 62.1551 37.4229 61.7932C41.2476 60.8798 49.7779 59.4296 62.5785 60.489C63.8465 60.594 64.9339 59.5916 64.9339 58.3192V14.68C64.9337 13.551 64.0704 12.607 62.9456 12.5103Z" fill="#F7F4F7"/>
<path d="M37.4228 61.7933C41.2475 60.8799 49.7778 59.4297 62.5783 60.4892C63.8464 60.5942 64.9337 59.5917 64.9337 58.3193V14.68C64.9337 13.551 64.0704 12.607 62.9456 12.5103C47.6202 11.1927 38.3328 13.4682 35.8165 14.2071C35.5891 14.2738 35.3545 14.3072 35.1198 14.3072V62.0647C35.8925 62.0646 36.6652 61.9742 37.4228 61.7933Z" fill="#EDEAED"/>
<path d="M62.5784 57.3013L62.252 40.5105L42.8779 40.887C42.4646 40.895 42.0989 40.9603 42.0989 40.9603L42.1378 43.2259L38.6116 43.2892C38.6116 43.2892 38.5588 43.3665 38.4527 43.5572C38.0142 44.3513 37.7932 45.247 37.8119 46.1539L38.0378 57.7783L62.5784 57.3013Z" fill="#00247D"/>
<path d="M62.252 40.5105L59.2413 40.569L53.2928 44.9084L53.2108 40.6862L46.7527 40.8117L46.8172 44.1298L42.0989 40.9603C41.3247 41.0914 40.5913 41.3997 39.956 41.8612L46.1118 45.9925L43.8695 46.0361L38.9954 42.7598C38.8568 42.9283 38.7286 43.1051 38.6116 43.2892L42.7368 46.0581L37.8119 46.1539L37.9374 52.6119L42.9553 52.5144L38.0069 56.1845L38.0378 57.7783L42.3415 57.6947L47.0146 54.2857L47.0791 57.6026L53.5371 57.4771L53.4551 53.2548L59.5663 57.3599L62.5784 57.3013L62.5274 54.6807L58.8421 52.2056L62.478 52.1349L62.3524 45.6769L58.7179 45.7475L62.303 43.1311L62.252 40.5105Z" fill="#EEEEEE"/>
<path d="M51.9192 40.7113L48.0443 40.7866L48.1699 47.2446L37.837 47.4455L37.9123 51.3203L48.2452 51.1195L48.3707 57.5775L52.2455 57.5022L52.12 51.0441L62.4528 50.8433L62.3775 46.9685L52.0447 47.1693L51.9192 40.7113Z" fill="#CF1B2B"/>
<path d="M62.252 40.5105L60.365 40.5471L53.3081 45.6963L53.3112 45.8526L55.3403 45.8132L62.257 40.7662L62.252 40.5105ZM39.956 41.8612C39.5993 42.1191 39.2765 42.421 38.9954 42.7598L43.8695 46.0361L46.1105 45.9926L39.956 41.8612ZM46.2515 52.4503L38.9859 57.7599L41.2165 57.7165L46.9993 53.4979L46.9787 52.4362L46.2515 52.4503ZM62.5734 57.0456L62.5428 55.4698L57.7158 52.2275L55.4645 52.2712L62.5734 57.0456Z" fill="#CF1B2B"/>
<path opacity="0.5" d="M62.3746 12.5103C59.915 12.3461 57.5766 12.2377 55.3606 12.1752C57.4458 12.6756 58.7722 13.6527 58.7722 15.818V58.5993C58.7722 59.1825 58.6724 59.7534 58.4832 60.3018C59.596 60.3528 60.7335 60.4139 61.9019 60.4891C63.5341 60.5941 64.9337 59.5917 64.9337 58.3193V14.68C64.9337 13.551 63.8224 12.6069 62.3746 12.5103Z" fill="#979697"/>
<path d="M54.5726 33.1032C53.3627 33.1032 52.3784 32.1188 52.3784 30.909V23.4095C52.3784 13.8931 44.6362 6.15103 35.1199 6.15103C25.6033 6.15103 17.8611 13.8932 17.8611 23.4095V30.909C17.8611 32.1189 16.8767 33.1032 15.667 33.1032C14.457 33.1032 13.4728 32.1188 13.4728 30.909V23.4095C13.4728 17.6274 15.7246 12.1915 19.8133 8.10283C23.9018 4.01423 29.3379 1.76263 35.12 1.76263C40.902 1.76263 46.3381 4.01433 50.4268 8.10283C54.5154 12.1915 56.767 17.6276 56.767 23.4095V30.909C56.7668 32.1188 55.7825 33.1032 54.5726 33.1032Z" fill="#7FB2F9"/>
<path d="M35.2034 1.76343V6.15183C44.6814 6.19723 52.3783 13.9208 52.3783 23.4094V30.9088C52.3783 32.1188 53.3625 33.103 54.5725 33.103C55.7823 33.103 56.7666 32.1188 56.7666 30.9088V23.4094C56.7666 17.6274 54.5148 12.1913 50.4264 8.10263C46.3576 4.03393 40.9542 1.78503 35.2034 1.76343Z" fill="#9DC6FB"/>
<path d="M18.7091 38.8085H20.8168C22.0101 38.8085 22.9775 37.841 22.9775 36.6478V25.3492C22.9775 24.1559 22.0101 23.1885 20.8168 23.1885H18.7091C15.8171 23.1885 13.4727 25.5329 13.4727 28.4249V33.5719C13.4727 36.464 15.8171 38.8085 18.7091 38.8085Z" fill="#606060"/>
<path d="M20.8169 23.1886H18.7783V38.8086H20.8169C22.0102 38.8086 22.9776 37.8412 22.9776 36.6479V25.3493C22.9775 24.1559 22.0102 23.1886 20.8169 23.1886Z" fill="#DDD4D4"/>
<path d="M51.5304 38.8085H49.4227C48.2294 38.8085 47.262 37.841 47.262 36.6478V25.3492C47.262 24.1559 48.2294 23.1885 49.4227 23.1885H51.5304C54.4224 23.1885 56.7668 25.5329 56.7668 28.4249V33.5719C56.7668 36.464 54.4224 38.8085 51.5304 38.8085Z" fill="#606060"/>
<path d="M53.7038 17.5458C52.4037 18.0749 50.9184 17.4969 50.3147 16.2296C49.1523 13.7896 47.3983 11.6248 45.2279 9.98582C42.2932 7.76962 38.7979 6.59832 35.1197 6.59832C31.5076 6.59832 28.063 7.73192 25.1584 9.87612C22.9819 11.4831 21.2522 13.5434 20.0702 15.9183C19.4499 17.1645 17.9728 17.7198 16.6865 17.1873C15.2758 16.6034 14.6409 14.9462 15.3195 13.5786C16.3764 11.4483 17.7749 9.50782 19.4966 7.78612C23.6695 3.61312 29.218 1.31482 35.1197 1.31482C41.0215 1.31482 46.5699 3.61312 50.743 7.78612C52.5703 9.61342 54.0315 11.6825 55.1068 13.9613C55.755 15.3348 55.1157 16.9712 53.7091 17.5436L53.7038 17.5458Z" fill="#CF1B2B"/>
<path d="M49.4226 23.1886H51.4612V38.8086H49.4226C48.2293 38.8086 47.2619 37.8412 47.2619 36.6479V25.3493C47.262 24.1559 48.2293 23.1886 49.4226 23.1886Z" fill="#DDD4D4"/>
<path d="M55.1068 13.9613C54.0314 11.6825 52.5703 9.61351 50.743 7.78611C48.0385 5.08151 44.34 2.87781 41.7029 2.87781C46.0035 3.54581 42.4281 6.91801 45.6377 9.95211C47.5113 11.7232 48.4517 12.3188 50.3148 16.2296C50.9184 17.4969 52.4037 18.0749 53.7039 17.5458L53.7093 17.5436C55.1158 16.9712 55.755 15.3347 55.1068 13.9613Z" fill="#570F15" fill-opacity="0.5"/>
<path d="M10.2632 50.6421C23.0147 49.849 30.1142 51.6184 30.7024 51.6184C31.1865 51.6184 31.6173 51.2739 31.7092 50.7806C31.8129 50.2239 31.4456 49.6885 30.889 49.5847C26.7027 48.8049 19.7039 47.9999 10.1358 48.5953C9.57062 48.6304 9.14092 49.1171 9.17602 49.6823C9.21132 50.2477 9.69622 50.6786 10.2632 50.6421Z" fill="#00247D"/>
<path d="M10.2632 55.893C23.0147 55.0999 30.1142 56.8693 30.7024 56.8693C31.1865 56.8693 31.6173 56.5247 31.7092 56.0315C31.8129 55.4747 31.4456 54.9393 30.889 54.8356C26.7027 54.0557 19.7039 53.2509 10.1358 53.8461C9.57062 53.8813 9.14092 54.368 9.17602 54.9332C9.21132 55.4984 9.69622 55.9297 10.2632 55.893Z" fill="#00247D"/>
<path d="M10.2632 45.3916C23.014 44.5985 30.1142 46.3679 30.7024 46.3679C31.1865 46.3679 31.6173 46.0234 31.7092 45.5301C31.8129 44.9734 31.4456 44.438 30.889 44.3342C26.7025 43.5542 19.7036 42.7495 10.1358 43.3448C9.57062 43.3799 9.14092 43.8666 9.17602 44.4318C9.21132 44.9969 9.69622 45.4277 10.2632 45.3916Z" fill="#00247D"/>
<path d="M65.9591 15.9207V14.68C65.9591 13.0315 64.6741 11.6297 63.0335 11.4886C60.2022 11.2452 57.4007 11.1117 54.6943 11.088C53.7812 9.64393 52.7027 8.29573 51.4682 7.06113C42.433 -1.97397 27.8079 -1.97547 18.7715 7.06113C17.5385 8.29403 16.4586 9.64253 15.545 11.088C12.8386 11.1117 10.0371 11.2452 7.20601 11.4886C5.56551 11.6296 4.28041 13.0315 4.28041 14.68V15.9207C2.18981 16.3734 0.119812 17.4568 0.119812 20.7475V58.5991C0.119812 63.0082 3.89401 66.4968 8.30141 66.133C11.1126 65.9003 13.8849 65.7825 16.5412 65.7825C24.1013 65.7825 29.2079 66.7324 31.5791 67.2987C33.9066 67.8546 36.3318 67.855 38.6602 67.2987C41.0313 66.7324 46.1381 65.7825 53.6985 65.7825C56.3548 65.7825 59.127 65.9005 61.9384 66.133C66.3032 66.4938 70.1198 63.0589 70.1198 58.5993V20.7475C70.1198 17.4568 68.0497 16.3736 65.9591 15.9207ZM55.0142 17.9499C55.4966 19.7165 55.7415 21.5447 55.7415 23.4092V23.7947C55.07 23.1835 54.2656 22.7162 53.3773 22.4414C53.312 21.1933 53.1197 19.9638 52.804 18.764C53.5992 18.7437 54.3747 18.466 55.0142 17.9499ZM55.7415 28.425V33.572C55.7415 35.5649 54.3492 37.2378 52.4866 37.6722V24.3249C54.3492 24.7592 55.7415 26.4321 55.7415 28.425ZM16.2381 14.0344C17.244 12.0068 18.5844 10.1485 20.2218 8.51133C28.4553 0.277528 41.7833 0.276427 50.018 8.51133C51.7558 10.2492 53.156 12.2302 54.1794 14.3989C55.0904 16.329 52.1766 17.7532 51.2404 15.7885C50.0006 13.1857 48.1351 10.8962 45.8459 9.16753C39.5127 4.38523 30.858 4.39413 24.5492 9.05133C22.2346 10.7603 20.4187 12.9169 19.1521 15.4614C18.7732 16.2225 17.8624 16.5646 17.0785 16.24C16.2163 15.883 15.8231 14.8703 16.2381 14.0344ZM45.4307 11.47C40.2008 11.9742 36.8304 12.8405 35.5273 13.2231C35.267 13.2996 34.9839 13.3031 34.7119 13.2231C33.4083 12.8403 30.0372 11.974 24.806 11.4697C25.1151 11.2037 25.4347 10.9466 25.7672 10.7011C31.3611 6.57183 39.0177 6.58123 44.6099 10.804C44.8913 11.0164 45.1643 11.2392 45.4307 11.47ZM14.4981 23.4092C14.4981 21.4025 14.7804 19.4407 15.3374 17.553C15.95 18.0675 16.7143 18.3731 17.5329 18.4078C17.1591 19.7193 16.9344 21.0682 16.8626 22.4413C15.9742 22.7159 15.1695 23.1834 14.4979 23.7947L14.4981 23.4092ZM14.4981 28.425C14.4981 26.4321 15.8903 24.7592 17.7529 24.3249V26.6578C17.7529 27.2241 18.2119 27.6832 18.7783 27.6832C19.3447 27.6832 19.8037 27.2241 19.8037 26.6578V24.214H20.8169C21.443 24.214 21.9522 24.7232 21.9522 25.3491V36.6479C21.9522 37.2739 21.443 37.783 20.8169 37.783H19.8037V31.459C19.8037 30.8927 19.3447 30.4336 18.7783 30.4336C18.2119 30.4336 17.7529 30.8927 17.7529 31.459V37.6722C15.8903 37.2378 14.4981 35.5649 14.4981 33.572V28.425ZM6.33121 14.68C6.33121 14.0868 6.79261 13.5826 7.38181 13.532C9.75171 13.3281 12.0993 13.2032 14.3857 13.156C14.1007 13.7454 13.9834 14.3999 14.0368 15.0452C12.9831 17.7011 12.4474 20.5134 12.4474 23.4094V28.4252V33.5721C12.4474 37.0248 15.2566 39.834 18.7094 39.834H18.7771H18.7798H20.8171C22.5739 39.834 24.0031 38.4047 24.0031 36.648V25.3493C24.0031 23.5924 22.5739 22.1633 20.8171 22.1633H18.9354C19.0534 20.6099 19.3926 19.094 19.9473 17.6404C20.374 17.3115 20.7342 16.8854 20.9882 16.3753C21.5277 15.2917 22.1812 14.2882 22.9417 13.3689C28.9022 13.8125 32.6859 14.7686 34.0945 15.1795V60.9789C33.7448 60.9385 33.3974 60.8778 33.0549 60.7961C29.063 59.8427 20.4444 58.4025 7.57681 59.4673C7.25251 59.4948 6.94271 59.3876 6.70321 59.1671C6.46321 58.9463 6.33121 58.6452 6.33121 58.3193V14.68ZM68.069 58.5993C68.069 61.8463 65.2917 64.353 62.1072 64.0894C59.2401 63.8521 56.411 63.7318 53.6985 63.7318C45.9279 63.7318 40.6426 64.717 38.1838 65.3041C36.1781 65.7833 34.0614 65.7832 32.0555 65.3041C29.5966 64.7169 24.3113 63.7318 16.541 63.7318C13.8285 63.7318 10.9994 63.8521 8.13241 64.0894C4.91641 64.3553 2.17051 61.8078 2.17051 58.5993V20.7475C2.17051 19.2148 2.70991 18.4567 4.28041 18.0288V58.319C4.28041 59.2118 4.65721 60.0706 5.31421 60.6755C5.97081 61.2799 6.85681 61.584 7.74581 61.5108C20.3294 60.4692 28.7056 61.8654 32.5786 62.7904C34.1849 63.174 35.9483 63.1996 37.6612 62.7904C41.534 61.8655 49.9101 60.4692 62.494 61.5108C63.3833 61.5839 64.2691 61.2798 64.9255 60.6755C65.5826 60.0706 65.9594 59.2118 65.9594 58.319V52.404C65.9594 51.8377 65.5004 51.3786 64.934 51.3786C64.3676 51.3786 63.9086 51.8377 63.9086 52.404V58.319C63.9086 58.6448 63.7765 58.9459 63.5366 59.1668C63.2972 59.3873 62.9871 59.4947 62.663 59.467C46.3784 58.1194 37.7601 60.7924 36.1453 60.9786V15.1793C37.5524 14.7688 41.3313 13.8139 47.2836 13.3699C48.1149 14.3773 48.8253 15.4869 49.3891 16.6705C49.6352 17.187 49.9885 17.6195 50.409 17.9561C50.8948 19.3133 51.1949 20.7233 51.3044 22.1633H49.4227C47.6659 22.1633 46.2366 23.5926 46.2366 25.3493V36.648C46.2366 38.4048 47.6659 39.834 49.4227 39.834H51.46H51.4627H51.5304C54.9832 39.834 57.7924 37.0249 57.7924 33.5721V28.4252V23.4094C57.7924 20.6709 57.3121 18.0017 56.3671 15.4703C56.4373 14.8106 56.3263 14.1426 56.0343 13.5237C55.9762 13.4005 55.9162 13.2781 55.8559 13.156C58.1414 13.2032 60.4885 13.3281 62.8579 13.532C63.4472 13.5826 63.9086 14.0869 63.9086 14.68V47.603C63.9086 48.1693 64.3676 48.6284 64.934 48.6284C65.5004 48.6284 65.9594 48.1693 65.9594 47.603V18.0288C67.5297 18.4567 68.0692 19.2148 68.0692 20.7475L68.069 58.5993ZM50.4358 24.214V37.783H49.4226C48.7965 37.783 48.2873 37.2738 48.2873 36.6479V25.3491C48.2873 24.7231 48.7965 24.214 49.4226 24.214H50.4358Z" fill="#2B4182"/>
</svg>
