<svg width="58" height="71" viewBox="0 0 58 71" fill="none" xmlns="http://www.w3.org/2000/svg">
<path d="M40.1635 63.3907H22.9036C19.7323 63.3907 17.1613 65.9616 17.1613 69.1331H45.9059C45.9059 65.9616 43.3349 63.3907 40.1635 63.3907Z" fill="#F5B955"/>
<path d="M47.3713 47.5529C36.9019 56.3377 21.2933 54.9722 12.5084 44.5028C3.72351 34.0334 5.08911 18.4247 15.5585 9.63989C26.0279 0.854989 41.6365 2.22049 50.4214 12.6899C59.2063 23.1593 57.8407 38.7681 47.3713 47.5529Z" fill="#78D2FA"/>
<path d="M31.7024 22.6844C31.5343 22.7565 31.2097 22.9026 31.0834 23.0464C30.9259 23.2259 31.2463 23.3668 31.1564 23.469C31.0011 23.6455 30.9163 23.931 30.5247 23.9746C29.7069 24.0657 28.2794 23.2385 27.4707 22.9736C28.4459 21.5373 26.5286 21.6861 25.8048 21.8771C24.8674 22.1244 23.206 22.3289 22.4319 22.9643C21.8946 23.4052 21.3388 24.9404 20.9559 25.5787C20.423 26.4673 19.8679 27.2548 19.5947 28.2541C18.5927 31.92 21.7385 35.3715 25.526 34.2352C26.5775 33.9198 27.5849 33.0461 28.6935 33.7692C29.5105 34.3021 29.2483 34.9852 29.5692 35.7181C29.8469 36.3522 30.6524 36.6304 31.0135 37.194C31.7058 38.2745 31.5263 39.0583 31.3686 40.1952C31.1614 41.6871 32.6362 43.1552 33.3353 44.4365C33.6873 45.0817 34.6994 46.8837 35.4137 47.0677C36.5367 47.357 37.9162 45.6522 38.4025 44.7804C38.7827 44.0988 38.5175 43.5213 38.7451 42.9057C38.9915 42.2395 39.406 41.9794 39.5159 41.1572C39.6343 40.2708 39.8744 40.0133 40.3291 39.3016C41.0612 38.1561 40.819 37.6047 40.2506 36.4997C39.0699 34.2042 41.6033 32.5868 42.5203 30.5873C43.4779 28.4992 41.1019 29.558 40.0156 29.093C38.8988 28.6149 38.2417 27.4481 37.5772 26.5019C36.9126 25.5555 36.2399 24.0761 35.2912 23.3698C34.5604 22.8254 32.6338 22.8531 31.7024 22.6844Z" fill="#7ADC10"/>
<path d="M50.4215 12.6899C44.942 6.15981 36.8079 3.17201 28.9219 3.97941L26.4399 8.53911L21.2362 11.4614C20.4699 11.8918 19.9236 12.6288 19.7346 13.4872L19.3496 15.2357C19.1212 16.273 19.4427 17.355 20.2007 18.0992L22.5073 20.3642L23.0855 16.9968L30.2193 15.739L35.906 16.6766L38.0608 18.112L38.258 19.2304L41.6881 23.6899L42.3862 23.2829C43.8937 22.404 45.1927 21.2087 46.1936 19.7793L45.4107 18.9598C45.1618 18.6992 45.3037 18.2664 45.6586 18.2037L47.1528 17.9403C47.5903 17.8632 48.0398 17.9814 48.3826 18.264L49.8552 19.4778C49.9955 19.5935 50.1139 19.7334 50.2048 19.8909L51.0449 21.3471C51.52 22.1705 52.7313 22.0976 53.104 21.223C53.5985 20.0626 54.1261 18.8525 54.1956 18.8042C53.2654 16.6454 52.0103 14.5834 50.4215 12.6899Z" fill="#7ADC10"/>
<path d="M20.7434 43.9348C21.7792 43.3841 22.1724 42.0982 21.6217 41.0625L21.1376 40.1518C20.9261 39.754 20.8467 39.2992 20.9105 38.8533C21.0918 37.589 20.1242 36.4518 18.8473 36.4283L16.2998 36.3812L11.198 33.7541L7.69211 35.6181C8.62691 38.7835 10.212 41.8131 12.4692 44.5028C14.5566 46.9904 17.0299 48.9631 19.7273 50.4086L19.8155 44.4284L20.7434 43.9348Z" fill="#7ADC10"/>
<path opacity="0.5" d="M18.7931 49.8595C25.9955 51.3981 33.8072 49.7194 39.8861 44.6185C50.3555 35.8338 51.7211 20.225 42.9362 9.75557C41.1024 7.57017 38.9712 5.78136 36.6516 4.39886C41.8534 5.51006 46.7374 8.29947 50.4214 12.6899C59.2063 23.1593 57.8407 38.7681 47.3713 47.5529C39.0874 54.5039 27.5858 55.1 18.7931 49.8595Z" fill="#4B849E"/>
<path d="M56.5214 21.2207C55.5048 17.761 53.805 14.595 51.4687 11.811C43.5212 2.33968 30.2295 -0.0633183 19.6482 5.30648C19.6303 5.26738 19.6108 5.22858 19.5888 5.19058L17.2753 1.18358C16.8977 0.529682 16.0616 0.305583 15.4077 0.683183C14.7538 1.06068 14.5297 1.89688 14.9073 2.55078L14.9549 2.63308C11.1571 5.03608 8.0019 8.16148 5.5678 11.9432C5.1591 12.5783 5.3426 13.4242 5.9775 13.8328C6.2064 13.9802 6.46271 14.0505 6.71621 14.0505C7.16561 14.0505 7.6058 13.8291 7.8671 13.4231C10.0631 10.0109 12.9052 7.18468 16.323 5.00308L17.2206 6.55768C17.2421 6.59488 17.2669 6.62858 17.2913 6.66298C16.3928 7.24458 15.5201 7.88688 14.6795 8.59228C3.6494 17.8477 2.2056 34.3513 11.4609 45.3816C16.6192 51.5289 24.0273 54.6983 31.4859 54.6983C35.555 54.6983 39.6392 53.7544 43.3804 51.8358C43.4046 51.8966 43.4318 51.9568 43.4656 52.015L44.364 53.571C40.3845 55.6352 36.0469 56.6988 31.6536 56.7213C31.614 56.7179 31.5742 56.7153 31.5336 56.7153C31.4998 56.7153 31.4666 56.7179 31.4334 56.7204C29.0204 56.7137 26.5923 56.3951 24.1994 55.7539C16.9567 53.8132 10.9032 49.1683 7.1542 42.6745C3.8856 37.0129 2.6913 30.3526 3.792 23.9205C3.9193 23.1762 3.4192 22.4696 2.6751 22.3424C1.9309 22.2149 1.2242 22.7153 1.0969 23.4594C-0.110896 30.5193 1.1994 37.8288 4.7864 44.0419C8.9007 51.1681 15.5437 56.2655 23.4919 58.3952C25.7004 58.9869 27.9362 59.329 30.1665 59.4274V62.023H22.9036C18.9833 62.023 15.7941 65.2122 15.7941 69.1325C15.7941 69.8876 16.4062 70.4997 17.1613 70.4997H45.9059C46.661 70.4997 47.2731 69.8876 47.2731 69.1325C47.2731 65.2124 44.0838 62.023 40.1636 62.023H32.9008V59.4256C37.3413 59.2235 41.7057 58.0504 45.7324 55.9412L45.779 56.022C46.0322 56.4606 46.4917 56.7057 46.9642 56.7057C47.1961 56.7057 47.4313 56.6467 47.6466 56.5224C48.3005 56.1449 48.5246 55.3087 48.147 54.6548L45.8336 50.6476C45.7986 50.5869 45.7584 50.5312 45.716 50.478C46.587 49.9098 47.4339 49.2849 48.2502 48.6001C49.9346 47.1867 51.4325 45.5722 52.7023 43.801C53.1423 43.1874 53.0015 42.3333 52.3879 41.8932C51.7743 41.4532 50.9201 41.594 50.4801 42.2076C49.3435 43.7928 48.0021 45.2387 46.4925 46.5053C39.1991 52.6252 29.2334 53.5188 21.1826 49.59V45.2499L21.3853 45.142C23.085 44.2385 23.7327 42.1204 22.8291 40.4206L22.3448 39.5099C22.2689 39.3673 22.241 39.2072 22.264 39.0472C22.4061 38.0567 22.1157 37.0515 21.4672 36.2893C20.8188 35.5273 19.8731 35.0795 18.8727 35.0611L16.6431 35.0199L11.824 32.5383C11.4256 32.3332 10.952 32.3362 10.5564 32.5467L8.6268 33.5725C6.8518 25.36 9.56611 16.4528 16.4373 10.6871C19.3998 8.20118 22.8034 6.57848 26.3403 5.78988L25.3879 7.53948L20.5274 10.2693C19.4224 10.8898 18.6325 11.9554 18.36 13.1931L17.9751 14.9416C17.6433 16.4484 18.1026 17.9936 19.2034 19.0748L21.51 21.3398C21.6409 21.4683 21.7941 21.5657 21.9586 21.6317C21.8194 21.7158 21.6865 21.8067 21.564 21.9072C21.0103 22.3616 20.6298 23.1158 20.1525 24.1316C20.0162 24.4216 19.8754 24.7213 19.7831 24.8752C19.6955 25.0214 19.6072 25.1648 19.5197 25.3067C19.045 26.0774 18.554 26.8743 18.2755 27.8933C17.6582 30.1516 18.286 32.5413 19.9141 34.1297C21.4928 35.67 23.7372 36.199 25.9185 35.5445C26.2745 35.4377 26.6038 35.2918 26.8943 35.163C27.6419 34.8316 27.7903 34.8122 27.9462 34.9139C27.9582 34.9219 27.9674 34.9283 27.9741 34.9335C27.992 34.9931 28.0135 35.1197 28.0297 35.2154C28.0759 35.488 28.1392 35.8613 28.3166 36.2662C28.6087 36.9334 29.1268 37.3344 29.5051 37.6271C29.6298 37.7237 29.8182 37.8694 29.862 37.9315C30.2135 38.4799 30.1889 38.7843 30.0496 39.756L30.0139 40.007C29.7914 41.6111 30.7402 42.9958 31.5024 44.1084C31.7455 44.4631 31.975 44.798 32.1347 45.091C33.5576 47.699 34.4181 48.2227 35.0721 48.3913C35.2734 48.4431 35.473 48.4672 35.6701 48.4672C37.4241 48.4672 38.9727 46.5638 39.5962 45.4461C39.9765 44.7643 39.9911 44.1406 40.0007 43.7278C40.0039 43.5893 40.0075 43.4322 40.0271 43.3795C40.0765 43.2457 40.1481 43.1294 40.2472 42.9683C40.4658 42.613 40.7653 42.1264 40.8707 41.3381C40.9322 40.8783 40.9885 40.7922 41.3013 40.3143C41.3572 40.2289 41.417 40.1376 41.4808 40.0378C42.6594 38.194 42.0529 37.0146 41.4662 35.8741C41.1003 35.1628 41.3612 34.6364 42.4484 33.1957C42.924 32.5653 43.416 31.9134 43.7628 31.1569C43.928 30.7967 44.4308 29.7002 43.8057 28.7496C43.1908 27.8143 42.1 27.8389 41.3036 27.8565C41.0685 27.862 40.6768 27.8706 40.5443 27.832C39.9618 27.5775 39.472 26.8553 38.9983 26.157C38.8966 26.007 38.7962 25.859 38.6957 25.7159C38.5255 25.4735 38.3412 25.1682 38.146 24.845C37.6039 23.9473 36.9896 22.9297 36.1072 22.2729C35.2836 21.6599 33.9949 21.5436 32.8578 21.4412C32.4998 21.409 32.1617 21.3786 31.9458 21.3394C31.6822 21.2917 31.4102 21.3224 31.1637 21.4278C30.6259 21.6584 30.2945 21.8726 30.0556 22.1447C29.9743 22.2374 29.8994 22.3465 29.8378 22.4684C29.5969 22.3802 29.3287 22.2669 29.1065 22.1705C29.0789 21.7653 28.9211 21.4572 28.7806 21.2587C27.8828 19.9909 25.8532 20.4502 25.4556 20.5553C25.2612 20.6066 25.0066 20.6609 24.737 20.7183C24.4095 20.7881 24.0567 20.8633 23.7007 20.9553C23.7545 20.843 23.7936 20.7224 23.8154 20.5961L24.2309 18.1767L30.1878 17.1264L35.3539 17.978L36.7769 18.9259L36.8724 19.4681C36.9107 19.6851 37.0008 19.8896 37.1352 20.0642L40.5654 24.5237C40.8325 24.8711 41.2375 25.0575 41.65 25.0575C41.8848 25.0575 42.1222 24.997 42.3377 24.8714L43.0357 24.4644C44.7022 23.4929 46.168 22.1441 47.2744 20.5639C47.5405 20.184 47.5893 19.7082 47.4332 19.2954C47.4478 19.3012 47.4616 19.3092 47.474 19.3195L48.9467 20.5333C48.9609 20.5449 48.9725 20.5589 48.9817 20.5746L49.8218 22.0308C50.3022 22.8635 51.198 23.3444 52.1564 23.287C52.8988 23.2421 53.5628 22.8806 54.0002 22.3101C54.7919 25.153 55.0378 28.1539 54.6992 31.1907C54.6156 31.9411 55.1562 32.6173 55.9066 32.7009C56.6572 32.7852 57.3333 32.244 57.4168 31.4935C57.8044 28.0181 57.5031 24.562 56.5214 21.2207ZM40.1636 64.7575C42.0987 64.7575 43.7445 66.0204 44.3199 67.7653H18.7471C19.3224 66.0204 20.9682 64.7575 22.9035 64.7575H40.1636ZM11.2081 35.2969L15.6739 37.5965C15.8598 37.6922 16.0655 37.7442 16.2746 37.748L18.8223 37.7949C19.1191 37.8005 19.302 37.964 19.3846 38.0611C19.4672 38.1582 19.5995 38.365 19.5573 38.659C19.4514 39.397 19.5805 40.135 19.9305 40.7933L20.4146 41.704C20.6105 42.0724 20.4701 42.5315 20.1017 42.7274L19.1735 43.2209C18.7271 43.4582 18.4481 43.9225 18.4481 44.4281V48.0174C16.6591 46.8194 15.0075 45.3538 13.5556 43.6235C11.6732 41.3801 10.2867 38.8833 9.38131 36.2677L11.2081 35.2969ZM25.3071 23.3925C25.5979 23.3304 25.8733 23.2718 26.1232 23.207C26.1354 23.2771 26.153 23.3467 26.1764 23.4151C26.315 23.8215 26.6364 24.1391 27.0445 24.2728C27.2313 24.3341 27.5128 24.4575 27.8107 24.5882C28.7176 24.9861 29.7458 25.4371 30.6757 25.3336C31.597 25.2311 32.0208 24.6135 32.1804 24.381C32.1876 24.3704 32.1946 24.3601 32.2017 24.3498C32.2545 24.2871 32.3041 24.2169 32.348 24.1404C32.4348 24.1484 32.5231 24.1563 32.6124 24.1644C33.1272 24.2108 34.1951 24.307 34.4833 24.4727C34.9323 24.8125 35.3957 25.5803 35.8051 26.2583C36.0156 26.607 36.2334 26.9676 36.4579 27.2872C36.5501 27.4185 36.6421 27.5542 36.7352 27.6916C37.3672 28.6235 38.1536 29.7832 39.4772 30.3496C39.9624 30.5573 40.4724 30.5955 40.9515 30.5961C40.752 30.9037 40.5129 31.2206 40.2654 31.5485C39.2367 32.9118 37.8277 34.7789 39.0344 37.1248C39.5083 38.0462 39.5083 38.0462 39.1766 38.5653C39.1185 38.6561 39.0642 38.7391 39.0132 38.8169C38.6327 39.3983 38.3039 39.9004 38.1602 40.9759C38.1318 41.1884 38.0737 41.283 37.9182 41.5355C37.7789 41.7619 37.6055 42.0437 37.4623 42.4313C37.2844 42.9123 37.2743 43.3468 37.2669 43.6642C37.2602 43.9515 37.2525 44.0343 37.208 44.1142C36.831 44.7897 36.1563 45.4879 35.7843 45.684C35.5887 45.4771 35.1803 44.9647 34.5347 43.7817C34.3086 43.3671 34.0284 42.9585 33.7576 42.5632C33.236 41.802 32.6447 40.9392 32.7218 40.3834L32.7557 40.1447C32.9151 39.0341 33.0799 37.8859 32.1637 36.4564C31.8732 36.0029 31.4876 35.7046 31.1778 35.4649C31.0534 35.3687 30.8677 35.225 30.8146 35.1553C30.7759 35.0594 30.7533 34.9257 30.725 34.7588C30.6326 34.2137 30.478 33.3015 29.4393 32.624C27.9975 31.6837 26.6131 32.297 25.7859 32.6636C25.548 32.769 25.3234 32.8685 25.1321 32.9259C23.8988 33.2959 22.6929 33.0215 21.8232 32.173C20.9063 31.2783 20.5574 29.915 20.9128 28.6149C21.0878 27.9746 21.4397 27.4032 21.8474 26.7413C21.9404 26.5904 22.0343 26.4378 22.1276 26.2823C22.2911 26.0098 22.4542 25.6626 22.627 25.2949C22.8069 24.912 23.1393 24.2047 23.3148 24.0086C23.6627 23.7429 24.6896 23.524 25.3071 23.3925ZM51.9759 20.2927L51.35 19.2077C51.1768 18.9076 50.9534 18.6436 50.6859 18.4229L49.2133 17.2091C48.5608 16.6713 47.7088 16.4472 46.8763 16.5939L45.3823 16.8573C44.7205 16.974 44.1794 17.443 43.9701 18.0815C43.7657 18.705 43.9118 19.3857 44.3508 19.8695C43.6689 20.6536 42.8707 21.3413 41.995 21.8971L39.5072 18.6627L39.3683 17.8747C39.3033 17.5067 39.0907 17.1814 38.7798 16.9742L36.625 15.5387C36.4634 15.4311 36.2809 15.3592 36.0895 15.3276L30.4026 14.3901C30.2503 14.3648 30.0949 14.3658 29.9428 14.3927L22.809 15.6505C22.2408 15.7507 21.7966 16.1968 21.6988 16.7656L21.5625 17.5591L21.1193 17.1238C20.6948 16.7069 20.5176 16.111 20.6455 15.5298L21.0304 13.7813C21.1355 13.3039 21.4401 12.8929 21.8663 12.6535L27.07 9.73108C27.2942 9.60518 27.4783 9.41858 27.6013 9.19268L29.7246 5.29188C36.9682 4.76078 44.3593 7.59238 49.374 13.5687C50.7105 15.1615 51.8112 16.8908 52.6675 18.7175C52.5046 19.0725 52.2738 19.5981 51.9759 20.2927Z" fill="#2B4182"/>
</svg>
