<svg width="71" height="64" viewBox="0 0 71 64" fill="none" xmlns="http://www.w3.org/2000/svg">
<path d="M52.3631 1.66092H17.8763C14.0088 1.66092 10.8907 4.86952 11.0388 8.77012C11.1699 12.2225 13.912 15.0515 17.3289 15.3235V55.7204H52.9106V15.3235C56.3275 15.0515 59.0696 12.2225 59.2007 8.77012C59.3488 4.86952 56.2307 1.66092 52.3631 1.66092Z" fill="#F5BF57"/>
<path d="M43.3488 44.8315C42.8852 44.7723 42.4145 44.7423 41.9498 44.7423C39.3681 44.7423 36.9924 45.6427 35.1197 47.1463C33.2469 45.6427 30.8714 44.7423 28.2897 44.7423C27.825 44.7423 27.3543 44.7723 26.8907 44.8315L17.3289 46.0521V55.7205H52.9106V46.0523L43.3488 44.8315Z" fill="#554126" fill-opacity="0.31"/>
<path d="M35.1197 21.1337C33.6081 21.1337 32.3827 22.7551 32.3827 24.7553V55.7205H37.8568V24.7553C37.8568 22.7551 36.6314 21.1337 35.1197 21.1337Z" fill="#A47E1D"/>
<path d="M24.9927 21.1337C23.481 21.1337 22.2556 22.7551 22.2556 24.7553V48.4771H27.7297V24.7553C27.7297 22.7551 26.5043 21.1337 24.9927 21.1337Z" fill="#A47E1D"/>
<path d="M45.2468 21.1337C43.7352 21.1337 42.5098 22.7551 42.5098 24.7553V48.4771H47.9839V24.7553C47.9839 22.7551 46.7585 21.1337 45.2468 21.1337Z" fill="#A47E1D"/>
<path d="M1.18042 58.868H69.0591V62.9736H1.18042V58.868Z" fill="#FFDA88"/>
<path d="M67.2801 58.8681H2.95941V52.0254L27.4106 48.904C31.5004 48.3819 35.1197 51.5685 35.1197 55.6916C35.1197 51.5686 38.7391 48.3819 42.8289 48.904L67.2801 52.0254V58.8681Z" fill="white"/>
<path d="M35.1197 55.6915C35.1197 55.3757 35.0961 55.0661 35.055 54.7625H2.95941V58.868H67.2801V54.7625H35.1845C35.1434 55.0661 35.1197 55.3756 35.1197 55.6915Z" fill="#E4E8ED"/>
<path d="M40.2517 9.11933H38.1989V7.06653H40.2517V9.11933ZM36.1461 9.11933H34.0934V7.06653H36.1461V9.11933ZM32.0406 9.11933H29.9878V7.06653H32.0406V9.11933Z" fill="white"/>
<path d="M51.9526 7.06653H54.0054V9.11933H51.9526V7.06653Z" fill="white"/>
<path d="M16.2341 7.06653H18.2869V9.11933H16.2341V7.06653Z" fill="white"/>
<path d="M44.7573 0.223816C44.1904 0.223816 43.7309 0.683416 43.7309 1.25022C43.7309 1.81712 44.1904 2.27662 44.7573 2.27662H52.3052C55.5124 2.27662 58.1215 4.88581 58.1215 8.09301C58.1215 8.16861 58.12 8.24471 58.1172 8.32061C58.0025 11.3373 55.5496 13.7903 52.5327 13.9048C49.5734 14.02 47.0787 11.9103 46.5798 9.11942H48.5418C49.1087 9.11942 49.5682 8.65981 49.5682 8.09301C49.5682 7.52611 49.1087 7.06662 48.5418 7.06662H44.4362V8.09301C44.4362 12.4319 47.9662 15.962 52.3052 15.962C52.4067 15.962 52.5086 15.9601 52.6107 15.9562C56.6936 15.8012 60.0133 12.4815 60.1685 8.39801C60.1722 8.29611 60.1743 8.19442 60.1743 8.09312C60.1743 3.75412 56.6443 0.224016 52.3052 0.224016L44.7573 0.223816Z" fill="#2B4182"/>
<path d="M17.5706 15.9561C17.673 15.9599 17.7749 15.9618 17.8763 15.9618C22.2154 15.9618 25.7454 12.4319 25.7454 8.09282V7.06641H21.6398C21.0729 7.06641 20.6134 7.52602 20.6134 8.09282C20.6134 8.65972 21.0729 9.11922 21.6398 9.11922H23.6018C23.1156 11.8385 20.7333 13.9091 17.8763 13.9091C17.8008 13.9091 17.7251 13.9077 17.6486 13.9047C14.632 13.7901 12.179 11.3372 12.0645 8.32101C12.0616 8.24461 12.0601 8.16852 12.0601 8.09282C12.0601 4.88572 14.6692 2.27662 17.8763 2.27662H40.7096C41.2765 2.27662 41.736 1.81712 41.736 1.25022C41.736 0.683316 41.2765 0.223816 40.7096 0.223816H17.8763C13.5373 0.223816 10.0073 3.75382 10.0073 8.09282C10.0073 8.19412 10.0094 8.29562 10.0132 8.39832C10.1683 12.4813 13.488 15.801 17.5706 15.9561Z" fill="#2B4182"/>
<path d="M2.20669 59.8944H43.8099C44.3767 59.8944 44.8363 59.4349 44.8363 58.868C44.8363 58.3012 44.3767 57.8416 43.8099 57.8416H36.1461V55.6916C36.1461 52.484 38.7495 49.8744 41.9496 49.8744C42.1978 49.8744 42.4498 49.8905 42.6989 49.9223L54.0482 51.3711L54.3082 49.3349L53.9369 49.2875V20.4664C53.9369 19.8996 53.4774 19.44 52.9106 19.44C52.3437 19.44 51.8842 19.8996 51.8842 20.4664V49.0253L49.0103 48.6584V22.7245C49.0103 20.6493 47.3219 18.9611 45.2468 18.9611C43.1717 18.9611 41.4834 20.6493 41.4834 22.7245V47.8361C40.5659 47.8903 39.6901 48.1021 38.8832 48.4462V22.7245C38.8832 20.6493 37.1948 18.9611 35.1197 18.9611C33.0447 18.9611 31.3563 20.6493 31.3563 22.7245V48.4462C30.5494 48.1021 29.6736 47.8902 28.7561 47.8361V22.7245C28.7561 20.6493 27.0678 18.9611 24.9927 18.9611C22.9176 18.9611 21.2292 20.6493 21.2292 22.7245V48.6584L18.3553 49.0253V20.4664C18.3553 19.8996 17.8958 19.44 17.3289 19.44C16.7621 19.44 16.3025 19.8996 16.3025 20.4664V49.2873L1.93299 51.1216V57.8416H0.153992V64H13.9761C14.5429 64 15.0024 63.5405 15.0024 62.9736C15.0024 62.4067 14.5429 61.9472 13.9761 61.9472H2.20669V59.8944ZM43.5362 22.7245C43.5362 21.7812 44.3035 21.0138 45.2468 21.0138C46.1901 21.0138 46.9575 21.7812 46.9575 22.7245V48.3964L43.5362 47.9595V22.7245ZM33.4091 22.7245C33.4091 21.7812 34.1764 21.0138 35.1197 21.0138C36.0631 21.0138 36.8304 21.7812 36.8304 22.7245V49.7277C36.1489 50.3156 35.5681 51.0178 35.1197 51.8052C34.6714 51.0178 34.0906 50.3156 33.4091 49.7277V22.7245ZM23.282 22.7245C23.282 21.7812 24.0493 21.0138 24.9927 21.0138C25.936 21.0138 26.7033 21.7812 26.7033 22.7245V47.9597L23.282 48.3964V22.7245ZM3.98579 52.9292L27.5404 49.9221C27.7894 49.8904 28.0415 49.8742 28.2897 49.8742C31.4899 49.8742 34.0934 52.4839 34.0934 55.6914V57.8416H3.98579V52.9292Z" fill="#2B4182"/>
<path d="M68.3065 57.8417V51.1217L57.3624 49.7246C56.8001 49.6529 56.2861 50.0505 56.2143 50.6127C56.1425 51.175 56.5401 51.6891 57.1025 51.7609L66.2537 52.9292V57.8417H47.9154C47.3486 57.8417 46.8891 58.3012 46.8891 58.8681C46.8891 59.4349 47.3486 59.8945 47.9154 59.8945H68.0327V61.9472H18.0816C17.5148 61.9472 17.0552 62.4068 17.0552 62.9736C17.0552 63.5405 17.5148 64 18.0816 64H70.0855V57.8417H68.3065Z" fill="#2B4182"/>
</svg>
