<svg width="71" height="70" viewBox="0 0 71 70" fill="none" xmlns="http://www.w3.org/2000/svg">
<path d="M29.8906 66.6947C28.4876 68.0989 26.549 68.9664 24.4082 68.9664C22.266 68.9664 20.3275 68.0989 18.9245 66.6947C17.5215 65.2916 16.6541 63.3531 16.6541 61.2122V8.78889L8.8999 1.03479H54.5891C56.7312 1.03479 58.6699 1.90229 60.0727 3.30529C61.4757 4.70829 62.3432 6.64679 62.3432 8.78889V57.1051L29.8906 66.6947Z" fill="white"/>
<path d="M19.7985 28.3892C19.7985 18.2005 21.9091 8.76279 26.4602 1.03479H8.8999L16.654 8.78889V61.2122C16.654 63.353 17.5215 65.2915 18.9244 66.6947C20.3274 68.0989 22.2659 68.9664 24.4082 68.9664C26.549 68.9664 28.4876 68.0989 29.8904 66.6947L32.3158 65.978C23.0095 57.8908 19.7985 45.0519 19.7985 28.3892Z" fill="#E4E8ED"/>
<path d="M69.095 61.2123C69.095 65.4939 65.6239 68.9664 61.3409 68.9664H24.4082C26.5491 68.9664 28.4876 68.099 29.8907 66.6947C31.2949 65.2917 32.1624 63.353 32.1624 61.2123C32.1624 58.943 34.0004 57.1051 36.2695 57.1051H64.9879C66.1225 57.1051 67.1486 57.5652 67.8916 58.3084C68.6348 59.0515 69.095 60.0777 69.095 61.2123Z" fill="#E4E8ED"/>
<path d="M65.3071 4.68921C59.1661 5.38921 53.3505 7.99431 48.7968 12.5478C44.2431 17.1017 41.6381 22.9173 40.9381 29.0581C40.7194 30.9753 42.3385 32.5942 44.2554 32.3757C50.3964 31.6756 56.2121 29.0706 60.7657 24.5169C65.3194 19.9633 67.9246 14.1477 68.6246 8.00671C68.843 6.08971 67.224 4.47061 65.3071 4.68921Z" fill="#CD82E8"/>
<path d="M44.3113 29.5818C44.3113 17.9552 53.7364 8.52999 65.3631 8.52999C66.4384 8.52999 67.4947 8.61099 68.5266 8.76659C68.5622 8.51379 68.5956 8.26059 68.6245 8.00659C68.8431 6.08969 67.2241 4.47059 65.3071 4.68929C59.1661 5.38929 53.3505 7.99429 48.7969 12.5478C44.2431 17.1017 41.638 22.9171 40.938 29.0581C40.7196 30.9751 42.3384 32.5942 44.2555 32.3758C44.3345 32.3666 44.4132 32.3559 44.492 32.3464C44.3734 31.4417 44.3113 30.5188 44.3113 29.5818Z" fill="#AE6EC5"/>
<path d="M57.4397 15.8739C56.5054 14.9395 54.9905 14.9395 54.0562 15.8739L35.8316 34.0985C34.8972 35.0328 34.8972 36.5477 35.8316 37.482C36.7659 38.4165 38.2809 38.4165 39.2152 37.482L57.4397 19.2575C58.3742 18.3232 58.3742 16.8082 57.4397 15.8739Z" fill="#CD82E8"/>
<path d="M16.654 8.7889V12.8961H5.25289C4.11829 12.8961 3.09219 12.436 2.34899 11.6928C1.60589 10.9497 1.14569 9.9235 1.14569 8.7889C1.14569 6.6468 2.01319 4.7082 3.41739 3.3052C4.82039 1.9022 6.75899 1.0347 8.89989 1.0347C13.1828 1.0347 16.654 4.5059 16.654 8.7889Z" fill="#E4E8ED"/>
<path fill-rule="evenodd" clip-rule="evenodd" d="M23.3828 15.173C23.3828 15.7393 23.8418 16.1984 24.4081 16.1984H46.4899C47.0562 16.1984 47.5152 15.7393 47.5152 15.173C47.5152 14.6067 47.0562 14.1476 46.4899 14.1476H24.4081C23.8418 14.1476 23.3828 14.6067 23.3828 15.173Z" fill="#2B4182"/>
<path fill-rule="evenodd" clip-rule="evenodd" d="M23.3828 22.4944C23.3828 23.0607 23.8419 23.5198 24.4082 23.5198H42.4752C43.0415 23.5198 43.5006 23.0607 43.5006 22.4944C43.5006 21.9281 43.0415 21.469 42.4752 21.469H24.4082C23.8419 21.469 23.3828 21.9281 23.3828 22.4944Z" fill="#2B4182"/>
<path fill-rule="evenodd" clip-rule="evenodd" d="M23.3828 43.4559C23.3828 44.0222 23.8418 44.4813 24.4081 44.4813H48.5594C49.1257 44.4813 49.5848 44.0222 49.5848 43.4559C49.5848 42.8896 49.1257 42.4305 48.5594 42.4305H24.4081C23.8418 42.4305 23.3828 42.8896 23.3828 43.4559Z" fill="#2B4182"/>
<path fill-rule="evenodd" clip-rule="evenodd" d="M1.6241 12.4179C2.5515 13.3453 3.8352 13.9215 5.253 13.9215H16.6542C17.2205 13.9215 17.6795 13.4624 17.6795 12.8961V8.789C17.6795 3.9397 13.7493 0.00939941 8.9 0.00939941C6.4766 0.00939941 4.2804 0.992601 2.6928 2.5799C2.6929 2.5798 2.6927 2.58 2.6928 2.5799C1.1039 4.1676 0.120499 6.3643 0.120499 8.789C0.120499 10.2068 0.696798 11.4907 1.6241 12.4179ZM5.253 11.8707C4.4016 11.8707 3.6332 11.5268 3.0742 10.9678C2.5153 10.4089 2.1713 9.6403 2.1713 8.789C2.1713 6.9295 2.923 5.249 4.1423 4.0307C5.3607 2.8122 7.0419 2.0602 8.9 2.0602C12.6167 2.0602 15.6288 5.0723 15.6288 8.789V11.8707H5.253Z" fill="#2B4182"/>
<path fill-rule="evenodd" clip-rule="evenodd" d="M23.3828 68.9664C23.3828 69.5327 23.8419 69.9918 24.4082 69.9918H61.3409C66.1903 69.9918 70.1204 66.0601 70.1204 61.2123C70.1204 59.7944 69.5441 58.5105 68.6166 57.5833C67.6893 56.6559 66.4056 56.0797 64.9879 56.0797H36.2695C33.4341 56.0797 31.137 58.3767 31.137 61.2123C31.137 63.0703 30.3853 64.751 29.1659 65.9693C27.9475 67.1887 26.2663 67.941 24.4082 67.941C23.8419 67.941 23.3828 68.4001 23.3828 68.9664ZM30.0471 67.941C30.2443 67.7756 30.434 67.6017 30.6157 67.4198C32.2046 65.8321 33.1878 63.6356 33.1878 61.2123C33.1878 59.5094 34.5667 58.1305 36.2695 58.1305H64.9879C65.8393 58.1305 66.6077 58.4744 67.1665 59.0334C67.7255 59.5923 68.0696 60.3609 68.0696 61.2123C68.0696 64.9277 65.0574 67.941 61.3409 67.941H30.0471Z" fill="#2B4182"/>
<path fill-rule="evenodd" clip-rule="evenodd" d="M7.8745 1.0348C7.8745 0.4685 8.33359 0.00939941 8.89989 0.00939941H54.5889C57.0137 0.00939941 59.2101 0.9926 60.7978 2.58C61.4756 3.2581 62.0419 4.0474 62.4694 4.9165C62.6062 5.1945 62.6099 5.5196 62.4794 5.8007C62.3489 6.0818 62.0983 6.2888 61.7977 6.3639C57.2357 7.5028 52.9962 9.7986 49.5218 13.2729C45.1612 17.6335 42.6536 23.2015 41.9658 29.1014C41.939 29.3308 41.8356 29.5445 41.6723 29.7078L36.5566 34.8235C36.0227 35.3574 36.0227 36.223 36.5566 36.7569C37.0905 37.2907 37.9561 37.2908 38.4901 36.7569L43.6057 31.6413C43.769 31.478 43.9827 31.3746 44.212 31.3479C50.112 30.6599 55.6801 28.1523 60.0406 23.7919C60.5743 23.2581 61.08 22.7058 61.5586 22.1371C61.836 21.8075 62.2898 21.6865 62.6945 21.8341C63.0992 21.9818 63.3685 22.3666 63.3685 22.7974V45.0924C63.3685 45.6587 62.9094 46.1178 62.3431 46.1178C61.7768 46.1178 61.3177 45.6587 61.3177 45.0924V25.4135C56.7238 29.9293 50.9242 32.5549 44.8061 33.3411L39.9403 38.207C38.6054 39.5417 36.4413 39.5418 35.1065 38.207C33.7717 36.8722 33.7717 34.7082 35.1065 33.3734L39.9725 28.5074C40.7685 22.3123 43.4506 16.4438 48.0717 11.8228C51.4793 8.4151 55.5673 6.0614 59.9651 4.7412C59.7758 4.4897 59.5694 4.2521 59.3475 4.03C58.1291 2.8119 56.4483 2.0602 54.5889 2.0602H14.5401C16.4594 3.6706 17.6794 6.0871 17.6794 8.7889V25.1178C17.6794 25.6841 17.2203 26.1432 16.654 26.1432C16.0877 26.1432 15.6286 25.6841 15.6286 25.1178V8.7889C15.6286 5.0722 12.6166 2.0602 8.89989 2.0602C8.33359 2.0602 7.8745 1.6011 7.8745 1.0348ZM16.654 28.194C17.2203 28.194 17.6794 28.6531 17.6794 29.2194V61.2123C17.6794 63.0703 18.4311 64.751 19.6494 65.9695C20.8679 67.189 22.5486 67.941 24.4081 67.941C26.2662 67.941 27.9468 67.1894 29.165 65.9699C30.3844 64.7515 31.1369 63.0702 31.1369 61.2123C31.1369 58.3767 33.434 56.0797 36.2693 56.0797H61.3177V49.194C61.3177 48.6277 61.7768 48.1686 62.3431 48.1686C62.9094 48.1686 63.3685 48.6277 63.3685 49.194V57.1051C63.3685 57.6714 62.9094 58.1305 62.3431 58.1305H36.2693C34.5666 58.1305 33.1877 59.5093 33.1877 61.2123C33.1877 63.6357 32.2043 65.832 30.6155 67.4196C29.028 69.0086 26.8316 69.9918 24.4081 69.9918C21.9832 69.9918 19.7868 69.0085 18.199 67.4193C16.6118 65.8318 15.6286 63.6356 15.6286 61.2123V29.2194C15.6286 28.6531 16.0877 28.194 16.654 28.194Z" fill="#2B4182"/>
<path fill-rule="evenodd" clip-rule="evenodd" d="M65.1907 3.6705C67.7631 3.3772 69.9364 5.5506 69.6433 8.1229C68.9188 14.4779 66.2196 20.5133 61.4907 25.242C56.8698 29.8629 51.0013 32.5452 44.8062 33.3412L39.9403 38.2071C38.6055 39.5421 36.4413 39.5421 35.1065 38.2071M35.1065 38.2071C33.7718 36.8723 33.7717 34.7083 35.1065 33.3735L39.9725 28.5075C40.7684 22.3125 43.4506 16.4439 48.0717 11.8229C52.8005 7.0942 58.8359 4.3949 65.1907 3.6705M54.0971 14.5719C55.0027 14.072 56.087 14.0141 57.0341 14.3981C57.4455 14.565 57.831 14.8152 58.1647 15.1489C59.4997 16.4837 59.4997 18.648 58.1647 19.9827L47.3442 30.8032C52.0672 29.7027 56.4608 27.3716 60.0406 23.7919C64.4191 19.4135 66.93 13.8177 67.6057 7.8907C67.7495 6.6288 66.6848 5.5642 65.4231 5.7081C59.4963 6.3837 53.9003 8.8946 49.5218 13.273C45.9419 16.8529 43.611 21.2465 42.5104 25.9695L53.331 15.1489C53.564 14.9159 53.8223 14.7236 54.0971 14.5719ZM55.1317 16.345C55.6445 16.086 56.2863 16.1708 56.7146 16.5991C56.7165 16.6011 56.7185 16.603 56.7205 16.605C57.2466 17.1374 57.2466 17.9943 56.7205 18.5267C56.7185 18.5287 56.7166 18.5306 56.7147 18.5325L43.6058 31.6413C43.6028 31.6443 43.5999 31.6472 43.597 31.6502L38.4901 36.757C37.9562 37.2909 37.0905 37.291 36.5567 36.7571C36.0228 36.2232 36.0227 35.3575 36.5566 34.8236L54.7812 16.599C54.8868 16.4935 55.0053 16.4088 55.1317 16.345Z" fill="#2B4182"/>
</svg>
