<svg width="50" height="71" viewBox="0 0 50 71" fill="none" xmlns="http://www.w3.org/2000/svg">
<path d="M48.4385 9.357V23.1924C48.4385 25.3856 48.4385 26.6152 48.4385 28.8084V61.6436C48.4385 66.0541 44.8624 69.6233 40.4518 69.6233H9.78797C5.37747 69.6233 1.80127 66.0541 1.80127 61.6436V9.357C1.80127 4.9465 5.37727 1.37711 9.78797 1.37711H40.4517C44.8624 1.37711 48.4385 4.9465 48.4385 9.357Z" fill="#18B7FF"/>
<g opacity="0.5">
<path d="M31.3796 69.6233L15.1635 68.7603C10.7592 68.5259 7.37777 64.7717 7.61217 60.3674L10.3909 8.15471C10.5517 5.1332 12.3721 2.59651 14.9215 1.37711H9.78797C5.37727 1.37711 1.80127 4.9465 1.80127 9.357V61.6436C1.80127 66.0541 5.37747 69.6233 9.78797 69.6233H31.3796Z" fill="#2B8DB9"/>
<path d="M33.1943 1.37711L43.3475 1.91751C42.4496 1.56851 41.473 1.37711 40.4516 1.37711H33.1943Z" fill="#2B8DB9"/>
</g>
<path fill-rule="evenodd" clip-rule="evenodd" d="M9.78797 2.25211C5.85957 2.25211 2.67627 5.4306 2.67627 9.357V61.6436C2.67627 65.5699 5.85967 68.7483 9.78797 68.7483H40.4519C44.3801 68.7483 47.5636 65.5699 47.5636 61.6436V28.8084C47.5636 28.3251 47.9553 27.9334 48.4386 27.9334C48.9218 27.9334 49.3136 28.3251 49.3136 28.8084V61.6436C49.3136 66.5383 45.3447 70.4983 40.4519 70.4983H9.78797C4.89517 70.4983 0.92627 66.5383 0.92627 61.6436V9.357C0.92627 4.4622 4.89507 0.502106 9.78797 0.502106H14.6721C15.1554 0.502106 15.5471 0.893906 15.5471 1.37711C15.5471 1.86041 15.1554 2.25211 14.6721 2.25211H9.78797ZM19.0246 1.37711C19.0246 0.893906 19.4164 0.502106 19.8996 0.502106H40.4517C45.3447 0.502106 49.3136 4.4622 49.3136 9.357V23.1923C49.3136 23.6756 48.9218 24.0673 48.4386 24.0673C47.9553 24.0673 47.5636 23.6756 47.5636 23.1923V9.357C47.5636 5.4307 44.3801 2.25211 40.4517 2.25211H19.8996C19.4164 2.25211 19.0246 1.86041 19.0246 1.37711Z" fill="#2B4182"/>
<path d="M42.8261 10.0019V20.4218C42.8261 22.0836 41.4798 23.437 39.8109 23.437H10.4303C8.76134 23.437 7.40814 22.0837 7.40814 20.4218V10.0089C7.40814 8.3471 8.76854 6.9866 10.4374 6.9866H39.8109C41.4796 6.9867 42.8261 8.3401 42.8261 10.0019Z" fill="white"/>
<path d="M30.5429 15.8897C30.119 15.8897 29.7974 15.8279 29.5781 15.7043C29.3735 15.5807 29.2711 15.4095 29.2711 15.1908C29.2711 14.9721 29.3735 14.801 29.5781 14.6773C29.7974 14.5442 30.119 14.4777 30.5429 14.4777H35.0597C35.4836 14.4777 35.7979 14.5442 36.0025 14.6773C36.2218 14.801 36.3314 14.9721 36.3314 15.1908C36.3314 15.4095 36.2218 15.5807 36.0025 15.7043C35.7979 15.8279 35.4836 15.8897 35.0597 15.8897H30.5429Z" fill="#2B4182"/>
<path d="M34.2133 12.7126C34.2133 13.2975 33.7392 13.7716 33.1543 13.7716C32.5694 13.7716 32.0952 13.2975 32.0952 12.7126C32.0952 12.1277 32.5694 11.6536 33.1543 11.6536C33.7392 11.6536 34.2133 12.1277 34.2133 12.7126Z" fill="#2B4182"/>
<path d="M34.2133 17.6548C34.2133 18.2397 33.7392 18.7138 33.1543 18.7138C32.5694 18.7138 32.0952 18.2397 32.0952 17.6548C32.0952 17.0699 32.5694 16.5957 33.1543 16.5957C33.7392 16.5957 34.2133 17.0699 34.2133 17.6548Z" fill="#2B4182"/>
<path d="M20.2763 17.3865C20.4458 17.5559 20.5305 17.7489 20.5305 17.9654C20.5305 18.1725 20.4505 18.3608 20.2904 18.5302C20.1304 18.6903 19.9421 18.7703 19.7256 18.7703C19.4903 18.7703 19.2879 18.6714 19.1184 18.4738L17.1274 16.271L15.1365 18.4738C14.9576 18.662 14.7552 18.7562 14.5293 18.7562C14.3222 18.7562 14.1386 18.6762 13.9786 18.5161C13.8185 18.3561 13.7385 18.1725 13.7385 17.9654C13.7385 17.7489 13.8232 17.5559 13.9927 17.3865L16.0543 15.1413L14.1057 13.0233C13.9362 12.8538 13.8515 12.6608 13.8515 12.4443C13.8515 12.2278 13.9315 12.0442 14.0915 11.8936C14.2516 11.7336 14.4351 11.6536 14.6422 11.6536C14.8682 11.6536 15.0706 11.7477 15.2494 11.936L17.1274 13.9976L19.0055 11.936C19.1843 11.7477 19.3867 11.6536 19.6126 11.6536C19.8292 11.6536 20.0127 11.7336 20.1633 11.8936C20.3234 12.0442 20.4034 12.2278 20.4034 12.4443C20.4034 12.6608 20.3187 12.8538 20.1492 13.0233L18.2006 15.1413L20.2763 17.3865Z" fill="#2B4182"/>
<path fill-rule="evenodd" clip-rule="evenodd" d="M10.4374 7.68671C9.15407 7.68671 8.10807 8.73481 8.10807 10.009V20.4219C8.10807 21.6962 9.14687 22.7371 10.4303 22.7371H39.8109C41.0921 22.7371 42.1261 21.6982 42.1261 20.4219V10.002C42.1261 8.72581 41.092 7.68681 39.8109 7.68671H10.4374ZM6.70807 10.009C6.70807 7.95961 8.38287 6.28671 10.4374 6.28671H39.8109C41.8673 6.28691 43.5261 7.95471 43.5261 10.002V20.4219C43.5261 22.4693 41.8675 24.1371 39.8109 24.1371H10.4303C8.37577 24.1371 6.70807 22.4715 6.70807 20.4219V10.009Z" fill="#2B4182"/>
<path opacity="0.1" d="M42.6591 9.03091C42.3542 8.92191 42.0274 8.86391 41.6862 8.86391H12.3113C10.6414 8.86391 9.28384 10.2216 9.28384 11.8842V22.2955C9.28384 22.6367 9.34194 22.9633 9.45084 23.2683C8.26014 22.8691 7.41064 21.7437 7.41064 20.4223V10.0111C7.41064 8.34861 8.76834 6.98361 10.4381 6.98361H39.813C41.1416 6.98341 42.2671 7.84741 42.6591 9.03091Z" fill="black"/>
<path d="M15.9257 30.1999V35.031C15.9257 36.0494 15.1009 36.8741 14.0825 36.8741H9.25138C8.23298 36.8741 7.40808 36.0493 7.40808 35.031V30.1999C7.40808 29.1815 8.23298 28.3568 9.25138 28.3568H14.0825C15.1009 28.3568 15.9257 29.1815 15.9257 30.1999Z" fill="#2E3192"/>
<path d="M29.3759 30.1999V35.031C29.3759 36.0494 28.551 36.8741 27.5326 36.8741H22.7015C21.6831 36.8741 20.8583 36.0493 20.8583 35.031V30.1999C20.8583 29.1815 21.6831 28.3568 22.7015 28.3568H27.5326C28.551 28.3568 29.3759 29.1815 29.3759 30.1999Z" fill="white"/>
<path d="M42.8261 30.1999V35.031C42.8261 36.0494 42.0013 36.8741 40.9829 36.8741H36.1518C35.1334 36.8741 34.3085 36.0493 34.3085 35.031V30.1999C34.3085 29.1815 35.1334 28.3568 36.1518 28.3568H40.9829C42.0013 28.3568 42.8261 29.1815 42.8261 30.1999Z" fill="white"/>
<path d="M15.9257 43.2441V48.0752C15.9257 49.0936 15.1009 49.9184 14.0825 49.9184H9.25138C8.23298 49.9184 7.40808 49.0936 7.40808 48.0752V43.2441C7.40808 42.2257 8.23298 41.401 9.25138 41.401H14.0825C15.1009 41.401 15.9257 42.2258 15.9257 43.2441Z" fill="white"/>
<path d="M29.3759 43.2441V48.0752C29.3759 49.0936 28.551 49.9184 27.5326 49.9184H22.7015C21.6831 49.9184 20.8583 49.0936 20.8583 48.0752V43.2441C20.8583 42.2257 21.6831 41.401 22.7015 41.401H27.5326C28.551 41.401 29.3759 42.2258 29.3759 43.2441Z" fill="white"/>
<path d="M42.8261 43.2441V48.0752C42.8261 49.0936 42.0013 49.9184 40.9829 49.9184H36.1518C35.1334 49.9184 34.3085 49.0936 34.3085 48.0752V43.2441C34.3085 42.2257 35.1334 41.401 36.1518 41.401H40.9829C42.0013 41.401 42.8261 42.2258 42.8261 43.2441Z" fill="white"/>
<path d="M15.9257 56.2884V61.1195C15.9257 62.1379 15.1009 62.9626 14.0825 62.9626H9.25138C8.23298 62.9626 7.40808 62.1378 7.40808 61.1195V56.2884C7.40808 55.27 8.23298 54.4452 9.25138 54.4452H14.0825C15.1009 54.4452 15.9257 55.27 15.9257 56.2884Z" fill="white"/>
<path d="M29.3759 56.2884V61.1195C29.3759 62.1379 28.551 62.9626 27.5326 62.9626H22.7015C21.6831 62.9626 20.8583 62.1378 20.8583 61.1195V56.2884C20.8583 55.27 21.6831 54.4452 22.7015 54.4452H27.5326C28.551 54.4452 29.3759 55.27 29.3759 56.2884Z" fill="#FFC022"/>
<path d="M42.8261 56.2884V61.1195C42.8261 62.1379 42.0013 62.9626 40.9829 62.9626H36.1518C35.1334 62.9626 34.3085 62.1378 34.3085 61.1195V56.2884C34.3085 55.27 35.1334 54.4452 36.1518 54.4452H40.9829C42.0013 54.4452 42.8261 55.27 42.8261 56.2884Z" fill="#FDC214"/>
<path d="M9.25145 37.6001H14.0827C15.4992 37.6001 16.6513 36.4476 16.6513 35.0311V30.1998C16.6513 28.7833 15.4992 27.6307 14.0827 27.6307H9.25145C7.83495 27.6307 6.68195 28.7833 6.68195 30.1998V35.0311C6.68195 36.4476 7.83495 37.6001 9.25145 37.6001ZM8.13405 30.1998C8.13405 29.584 8.63525 29.0828 9.25145 29.0828H14.0827C14.698 29.0828 15.1994 29.584 15.1994 30.1998V35.0311C15.1994 35.6468 14.6982 36.148 14.0827 36.148H9.25145C8.63525 36.148 8.13405 35.6468 8.13405 35.0311V30.1998Z" fill="#2B4182"/>
<path d="M27.5326 27.6307H22.7014C21.2848 27.6307 20.1327 28.7833 20.1327 30.1998V35.0311C20.1327 36.4476 21.2848 37.6001 22.7014 37.6001H27.5326C28.9491 37.6001 30.1021 36.4476 30.1021 35.0311V30.1998C30.1019 28.7833 28.9491 27.6307 27.5326 27.6307ZM28.6499 35.0311C28.6499 35.6468 28.1486 36.148 27.5325 36.148H22.7012C22.0859 36.148 21.5845 35.6468 21.5845 35.0311V30.1998C21.5845 29.584 22.0857 29.0828 22.7012 29.0828H27.5325C28.1486 29.0828 28.6499 29.584 28.6499 30.1998V35.0311Z" fill="#2B4182"/>
<path d="M40.9831 27.6307H36.1519C34.7353 27.6307 33.5824 28.7833 33.5824 30.1998V35.0311C33.5824 36.4476 34.7352 37.6001 36.1519 37.6001H40.9831C42.3997 37.6001 43.5518 36.4476 43.5518 35.0311V30.1998C43.5518 28.7833 42.3997 27.6307 40.9831 27.6307ZM42.0997 35.0311C42.0997 35.6468 41.5985 36.148 40.983 36.148H36.1518C35.5356 36.148 35.0343 35.6468 35.0343 35.0311V30.1998C35.0343 29.584 35.5356 29.0828 36.1518 29.0828H40.983C41.5984 29.0828 42.0997 29.584 42.0997 30.1998V35.0311Z" fill="#2B4182"/>
<path d="M9.25145 50.6445H14.0827C15.4992 50.6445 16.6513 49.4919 16.6513 48.0754V43.2442C16.6513 41.8276 15.4992 40.6751 14.0827 40.6751H9.25145C7.83495 40.6751 6.68195 41.8276 6.68195 43.2442V48.0754C6.68195 49.4919 7.83495 50.6445 9.25145 50.6445ZM8.13405 43.2442C8.13405 42.6284 8.63525 42.1272 9.25145 42.1272H14.0827C14.698 42.1272 15.1994 42.6284 15.1994 43.2442V48.0754C15.1994 48.6912 14.6982 49.1924 14.0827 49.1924H9.25145C8.63525 49.1924 8.13405 48.6912 8.13405 48.0754V43.2442Z" fill="#2B4182"/>
<path d="M27.5326 40.6751H22.7014C21.2848 40.6751 20.1327 41.8276 20.1327 43.2442V48.0754C20.1327 49.4919 21.2848 50.6445 22.7014 50.6445H27.5326C28.9491 50.6445 30.1021 49.4919 30.1021 48.0754V43.2442C30.1019 41.8276 28.9491 40.6751 27.5326 40.6751ZM28.6499 48.0754C28.6499 48.6912 28.1486 49.1924 27.5325 49.1924H22.7012C22.0859 49.1924 21.5845 48.6912 21.5845 48.0754V43.2442C21.5845 42.6284 22.0857 42.1272 22.7012 42.1272H27.5325C28.1486 42.1272 28.6499 42.6284 28.6499 43.2442V48.0754Z" fill="#2B4182"/>
<path d="M40.9831 40.6751H36.1519C34.7353 40.6751 33.5824 41.8276 33.5824 43.2442V48.0754C33.5824 49.4919 34.7352 50.6445 36.1519 50.6445H40.9831C42.3997 50.6445 43.5518 49.4919 43.5518 48.0754V43.2442C43.5518 41.8276 42.3997 40.6751 40.9831 40.6751ZM42.0997 48.0754C42.0997 48.6912 41.5985 49.1924 40.983 49.1924H36.1518C35.5356 49.1924 35.0343 48.6912 35.0343 48.0754V43.2442C35.0343 42.6284 35.5356 42.1272 36.1518 42.1272H40.983C41.5984 42.1272 42.0997 42.6284 42.0997 43.2442V48.0754Z" fill="#2B4182"/>
<path d="M9.25145 63.6887H14.0827C15.4992 63.6887 16.6513 62.5361 16.6513 61.1196V56.2885C16.6513 54.872 15.4992 53.7194 14.0827 53.7194H9.25145C7.83495 53.7194 6.68195 54.872 6.68195 56.2885V61.1197C6.68195 62.5363 7.83495 63.6887 9.25145 63.6887ZM8.13405 56.2885C8.13405 55.6727 8.63525 55.1715 9.25145 55.1715H14.0827C14.698 55.1715 15.1994 55.6727 15.1994 56.2885V61.1197C15.1994 61.7355 14.6982 62.2367 14.0827 62.2367H9.25145C8.63525 62.2367 8.13405 61.7355 8.13405 61.1197V56.2885Z" fill="#2B4182"/>
<path d="M27.5326 53.7194H22.7014C21.2848 53.7194 20.1327 54.872 20.1327 56.2885V61.1197C20.1327 62.5363 21.2848 63.6888 22.7014 63.6888H27.5326C28.9491 63.6888 30.1021 62.5363 30.1021 61.1197V56.2885C30.1019 54.8718 28.9491 53.7194 27.5326 53.7194ZM28.6499 61.1196C28.6499 61.7354 28.1486 62.2366 27.5325 62.2366H22.7012C22.0859 62.2366 21.5845 61.7354 21.5845 61.1196V56.2885C21.5845 55.6727 22.0857 55.1715 22.7012 55.1715H27.5325C28.1486 55.1715 28.6499 55.6727 28.6499 56.2885V61.1196Z" fill="#2B4182"/>
<path d="M40.9831 53.7194H36.1519C34.7353 53.7194 33.5824 54.872 33.5824 56.2885V61.1197C33.5824 62.5363 34.7352 63.6888 36.1519 63.6888H40.9831C42.3997 63.6888 43.5518 62.5363 43.5518 61.1197V56.2885C43.5518 54.8718 42.3997 53.7194 40.9831 53.7194ZM42.0997 61.1196C42.0997 61.7354 41.5985 62.2366 40.983 62.2366H36.1518C35.5356 62.2366 35.0343 61.7354 35.0343 61.1196V56.2885C35.0343 55.6727 35.5356 55.1715 36.1518 55.1715H40.983C41.5984 55.1715 42.0997 55.6727 42.0997 56.2885V61.1196Z" fill="#2B4182"/>
</svg>
