<svg width="71" height="71" viewBox="0 0 71 71" fill="none" xmlns="http://www.w3.org/2000/svg">
<mask id="mask0_1_708" style="mask-type:luminance" maskUnits="userSpaceOnUse" x="0" y="0" width="71" height="71">
<path d="M0.119812 0.500397H70.1198V70.5004H0.119812V0.500397Z" fill="white"/>
</mask>
<g mask="url(#mask0_1_708)">
<path d="M62.3075 42.5186V68.0202C62.3075 68.8228 61.6568 69.4748 60.8529 69.4748H9.38673C8.58283 69.4748 7.93213 68.8228 7.93213 68.0202V42.5186C7.93213 41.7161 8.58283 41.0656 9.38673 41.0656H60.8529C61.6568 41.0656 62.3075 41.7161 62.3075 42.5186Z" fill="#64B9FC"/>
<path d="M15.4796 41.0656C15.051 43.4322 12.9802 45.2274 10.4891 45.2274H9.57153C8.99773 45.2274 8.44583 45.1316 7.93213 44.9563V42.5186C7.93213 41.7161 8.58283 41.0656 9.38673 41.0656H15.4796Z" fill="#31A7FB"/>
<path d="M62.3079 42.5186V68.0205C62.3079 68.8232 61.6563 69.4748 60.8536 69.4748H56.6968C57.4995 69.4748 58.1511 68.8232 58.1511 68.0205V42.5186C58.1511 41.7158 57.4995 41.0642 56.6968 41.0642H60.8536C61.6563 41.0642 62.3079 41.7158 62.3079 42.5186Z" fill="#31A7FB"/>
<path d="M62.3074 42.5186V44.9563C61.7938 45.1316 61.2419 45.2274 60.6681 45.2274H59.7505C57.2594 45.2274 55.1886 43.4322 54.76 41.0656H60.8529C61.6568 41.0656 62.3074 41.7161 62.3074 42.5186Z" fill="#1C96F9"/>
<path d="M35.1202 43.1704V65.4635H13.5435C12.741 65.4635 12.0891 64.813 12.0891 64.009V38.8085C12.0891 38.0046 12.741 37.3541 13.5435 37.3541H29.3024C32.5153 37.3541 35.1202 39.959 35.1202 43.1704Z" fill="#F2EFF2"/>
<path d="M35.1202 47.6831V58.7364H35.1077C24.49 58.7309 15.4031 51.7108 12.0891 42.1297V38.8085C12.0891 38.0046 12.741 37.3541 13.5435 37.3541H22.1673C23.5601 43.2185 28.7697 47.6474 35.0421 47.6831H35.1202Z" fill="#E1DDE1"/>
<path d="M15.5618 37.3541V40.1548C15.5618 42.3981 14.1073 44.3004 12.0887 44.97V38.8085C12.0887 38.0046 12.7405 37.3541 13.543 37.3541H15.5618Z" fill="#E1DDE1"/>
<path d="M35.1198 43.1714V65.4641H30.5359V43.1714C30.5359 39.9589 27.9313 37.3541 24.7188 37.3541H29.3027C32.5152 37.3541 35.1198 39.9589 35.1198 43.1714Z" fill="#E1DDE1"/>
<path d="M12.0891 64.0092V61.1007C12.0891 60.2976 12.7403 59.6464 13.5435 59.6464H29.3022C32.515 59.6464 35.1195 62.2509 35.1195 65.4635H13.5435C12.7403 65.4635 12.0891 64.8124 12.0891 64.0092Z" fill="#CBC5CB"/>
<path d="M35.1198 65.4641H30.6915C30.6915 62.2516 28.0884 59.6469 24.8744 59.6469H29.3027C32.5152 59.6469 35.1198 62.2516 35.1198 65.4641Z" fill="#B5ADB6"/>
<path d="M58.1499 38.8085V64.0089C58.1499 64.813 57.4993 65.4635 56.6954 65.4635H35.1202V43.1704C35.1202 39.959 37.7248 37.3541 40.9377 37.3541H56.6954C57.4993 37.3541 58.1499 38.0046 58.1499 38.8085Z" fill="#F2EFF2"/>
<path d="M58.1499 38.8085V42.3433C54.8383 51.8752 45.7654 58.7364 35.1202 58.7364V47.6831C41.4363 47.6831 46.7391 43.2637 48.1004 37.3541H56.6954C57.4993 37.3541 58.1499 38.0046 58.1499 38.8085Z" fill="#E1DDE1"/>
<path d="M58.1498 38.8085V64.0098C58.1498 64.8126 57.4997 65.4641 56.6956 65.4641H52.199C53.0017 65.4641 53.6532 64.8126 53.6532 64.0098V38.8085C53.6532 38.0057 53.0017 37.3541 52.199 37.3541H56.6956C57.4997 37.3541 58.1498 38.0057 58.1498 38.8085Z" fill="#E1DDE1"/>
<path d="M58.1505 64.0092V61.1007C58.1505 60.2976 57.4993 59.6464 56.696 59.6464H40.9373C37.7245 59.6464 35.12 62.2509 35.12 65.4635H56.696C57.4993 65.4635 58.1505 64.8124 58.1505 64.0092Z" fill="#CBC5CB"/>
<path d="M58.1499 61.101V64.0095C58.1499 64.8123 57.4998 65.4638 56.6956 65.4638H52.199C53.0017 65.4638 53.6532 64.8123 53.6532 64.0095V61.101C53.6532 60.2968 53.0017 59.6467 52.199 59.6467H56.6956C57.4998 59.6467 58.1499 60.2968 58.1499 61.101Z" fill="#B5ADB6"/>
<path fill-rule="evenodd" clip-rule="evenodd" d="M16.1736 46.1945C16.1736 46.7608 16.6326 47.2199 17.1989 47.2199H27.8415C28.4078 47.2199 28.8669 46.7608 28.8669 46.1945C28.8669 45.6282 28.4078 45.1691 27.8415 45.1691H17.1989C16.6326 45.1691 16.1736 45.6282 16.1736 46.1945Z" fill="#2B4182"/>
<path fill-rule="evenodd" clip-rule="evenodd" d="M41.3727 46.1945C41.3727 46.7608 41.8318 47.2199 42.3981 47.2199H53.0407C53.607 47.2199 54.0661 46.7608 54.0661 46.1945C54.0661 45.6282 53.607 45.1691 53.0407 45.1691H42.3981C41.8318 45.1691 41.3727 45.6282 41.3727 46.1945Z" fill="#2B4182"/>
<path fill-rule="evenodd" clip-rule="evenodd" d="M9.38592 68.4492C9.14902 68.4492 8.95702 68.2572 8.95702 68.0203V42.5194C8.95702 42.2825 9.14902 42.0905 9.38592 42.0905H60.8535C61.0905 42.0905 61.2824 42.2825 61.2824 42.5194V54.9432C61.2824 55.5095 61.7415 55.9686 62.3078 55.9686C62.8741 55.9686 63.3332 55.5095 63.3332 54.9432V42.5194C63.3332 41.1499 62.2231 40.0397 60.8535 40.0397H9.38592C8.01642 40.0397 6.90622 41.1499 6.90622 42.5194V68.0203C6.90622 69.3899 8.01642 70.5 9.38592 70.5H60.8535C62.2231 70.5 63.3332 69.3899 63.3332 68.0203V59.4992C63.3332 58.9329 62.8741 58.4738 62.3078 58.4738C61.7415 58.4738 61.2824 58.9329 61.2824 59.4992V68.0203C61.2824 68.2572 61.0905 68.4492 60.8535 68.4492H9.38592Z" fill="#2B4182"/>
<path fill-rule="evenodd" clip-rule="evenodd" d="M13.5435 64.4382C13.3065 64.4382 13.1145 64.2461 13.1145 64.0093V38.8084C13.1145 38.5715 13.3066 38.3794 13.5435 38.3794H29.3022C31.9487 38.3794 34.0941 40.5248 34.0941 43.1712C34.0941 43.7375 34.5532 44.1966 35.1195 44.1966C35.6858 44.1966 36.1449 43.7375 36.1449 43.1712C36.1449 39.3922 33.0813 36.3286 29.3022 36.3286H13.5435C12.174 36.3286 11.0637 37.4389 11.0637 38.8084V64.0093C11.0637 65.379 12.1741 66.489 13.5435 66.489H35.1195C35.6858 66.489 36.1449 66.0299 36.1449 65.4636C36.1449 64.8973 35.6858 64.4382 35.1195 64.4382H13.5435Z" fill="#2B4182"/>
<path fill-rule="evenodd" clip-rule="evenodd" d="M35.1195 66.489C35.6858 66.489 36.1449 66.0299 36.1449 65.4636C36.1449 61.6847 33.0813 58.6211 29.3022 58.6211H13.5435C12.174 58.6211 11.0637 59.7313 11.0637 61.1008C11.0637 61.6671 11.5228 62.1261 12.0891 62.1261C12.6554 62.1261 13.1145 61.6671 13.1145 61.1008C13.1145 60.864 13.3065 60.6719 13.5435 60.6719H29.3022C31.9487 60.6719 34.0941 62.8173 34.0941 65.4636C34.0941 66.0299 34.5532 66.489 35.1195 66.489Z" fill="#2B4182"/>
<path fill-rule="evenodd" clip-rule="evenodd" d="M34.0946 65.4636C34.0946 66.0299 34.5537 66.489 35.12 66.489H56.696C58.0656 66.489 59.1757 65.3788 59.1757 64.0093V38.8084C59.1757 37.439 58.0657 36.3286 56.696 36.3286H40.9373C37.1582 36.3286 34.0946 39.3921 34.0946 43.1712V65.4636ZM36.1454 64.4382V43.1712C36.1454 40.5247 38.2908 38.3793 40.9373 38.3793H56.696C56.9328 38.3793 57.1249 38.5713 57.1249 38.8084V64.0093C57.1249 64.2462 56.9329 64.4382 56.696 64.4382H36.1454Z" fill="#2B4182"/>
<path fill-rule="evenodd" clip-rule="evenodd" d="M34.0946 65.4636C34.0946 66.0299 34.5537 66.489 35.12 66.489H56.696C58.0654 66.489 59.1758 65.379 59.1758 64.0093V61.1008C59.1758 59.7313 58.0655 58.6211 56.696 58.6211H40.9373C37.1582 58.6211 34.0946 61.6846 34.0946 65.4636ZM36.2554 64.4382C36.725 62.2846 38.6428 60.6719 40.9373 60.6719H56.696C56.933 60.6719 57.1251 60.8641 57.1251 61.1008V64.0093C57.1251 64.2461 56.9331 64.4382 56.696 64.4382H36.2554Z" fill="#2B4182"/>
<path fill-rule="evenodd" clip-rule="evenodd" d="M16.1735 50.2704C16.1735 50.8368 16.6326 51.2958 17.1989 51.2958H27.8415C28.4078 51.2958 28.8669 50.8368 28.8669 50.2704C28.8669 49.7041 28.4078 49.2451 27.8415 49.2451H17.1989C16.6326 49.2451 16.1735 49.7041 16.1735 50.2704Z" fill="#2B4182"/>
<path fill-rule="evenodd" clip-rule="evenodd" d="M16.1735 54.3464C16.1735 54.9127 16.6326 55.3718 17.1989 55.3718H27.8415C28.4078 55.3718 28.8669 54.9127 28.8669 54.3464C28.8669 53.7801 28.4078 53.321 27.8415 53.321H17.1989C16.6326 53.321 16.1735 53.7801 16.1735 54.3464Z" fill="#2B4182"/>
<path fill-rule="evenodd" clip-rule="evenodd" d="M41.3727 50.2704C41.3727 50.8368 41.8317 51.2958 42.398 51.2958H53.0406C53.6069 51.2958 54.066 50.8368 54.066 50.2704C54.066 49.7041 53.6069 49.2451 53.0406 49.2451H42.398C41.8317 49.2451 41.3727 49.7041 41.3727 50.2704Z" fill="#2B4182"/>
<path fill-rule="evenodd" clip-rule="evenodd" d="M41.3727 54.3464C41.3727 54.9127 41.8317 55.3718 42.398 55.3718H53.0406C53.6069 55.3718 54.066 54.9127 54.066 54.3464C54.066 53.7801 53.6069 53.321 53.0406 53.321H42.398C41.8317 53.321 41.3727 53.7801 41.3727 54.3464Z" fill="#2B4182"/>
<path d="M35.1075 55.6918C21.7092 55.6851 10.7479 44.5074 10.7479 31.1091V2.62639C10.7479 2.01849 11.2409 1.52559 11.8488 1.52559H20.6999C21.3079 1.52559 21.8009 2.01849 21.8009 2.62639V31.1734C21.8009 38.523 27.6926 44.5964 35.042 44.6385C42.4215 44.681 48.4387 38.6899 48.4387 31.3199V2.62639C48.4387 2.01849 48.9315 1.52559 49.5397 1.52559H58.3908C58.9987 1.52559 59.4917 2.01849 59.4917 2.62639V31.3199C59.4917 44.7628 48.5517 55.6985 35.1075 55.6918Z" fill="#64B9FC"/>
<path d="M35.0417 44.6388H29.48C22.1304 44.596 16.2385 38.5235 16.2385 31.1728V2.62638C16.2385 2.01878 15.7464 1.52548 15.1376 1.52548H20.7004C21.3081 1.52548 21.8013 2.01878 21.8013 2.62638V31.1728C21.8013 38.5235 27.6921 44.596 35.0417 44.6388Z" fill="#31A7FB"/>
<path d="M21.8013 2.62638V10.1773H10.7483V2.62638C10.7483 2.01878 11.2405 1.52548 11.8493 1.52548H20.7003C21.3082 1.52548 21.8013 2.01878 21.8013 2.62638Z" fill="#EEF4F5"/>
<path d="M21.8013 2.62638V10.1773H16.2385V2.62638C16.2385 2.01878 15.7465 1.52548 15.1376 1.52548H20.7003C21.3082 1.52548 21.8013 2.01878 21.8013 2.62638Z" fill="#CBE5E7"/>
<path d="M35.0419 44.6385C42.4216 44.681 48.4386 38.6898 48.4386 31.3199V2.62638C48.4386 2.01848 48.9316 1.52548 49.5396 1.52548H58.3908C58.9988 1.52548 59.4916 2.01848 59.4916 2.62638V31.3199C59.4916 44.7627 48.5517 55.6985 35.1074 55.6918L35.0419 44.6385Z" fill="#FB7722"/>
<path d="M59.4913 2.62638V31.3204C59.4913 44.7621 48.5517 55.6984 35.1076 55.6918L35.1045 55.0632C45.8975 52.5597 53.9647 42.8643 53.9647 31.3204V2.62638C53.9647 2.01878 53.4728 1.52548 52.8638 1.52548H58.3903C58.9991 1.52548 59.4913 2.01878 59.4913 2.62638Z" fill="#F2681F"/>
<path d="M59.4913 2.62638V10.1773H48.4382V2.62638C48.4382 2.01878 48.9315 1.52548 49.5392 1.52548H58.3903C58.9991 1.52548 59.4913 2.01878 59.4913 2.62638Z" fill="#EEF4F5"/>
<path d="M59.4913 2.62638V10.1773H53.9647V2.62638C53.9647 2.01878 53.4728 1.52548 52.8638 1.52548H58.3903C58.9991 1.52548 59.4913 2.01878 59.4913 2.62638Z" fill="#CBE5E7"/>
<path fill-rule="evenodd" clip-rule="evenodd" d="M35.1136 56.7173H35.1177C49.1236 56.7185 60.5171 45.3256 60.5171 31.3199V10.1816V10.178V10.1744V2.62659C60.5171 1.45229 59.5651 0.50029 58.3908 0.50029H56.3056C55.7393 0.50029 55.2802 0.95939 55.2802 1.52569C55.2802 2.09199 55.7393 2.55109 56.3056 2.55109H58.3908C58.4325 2.55109 58.4663 2.58489 58.4663 2.62659V9.15259H49.464V2.62669C49.464 2.58489 49.4979 2.55109 49.5396 2.55109H51.7497C52.316 2.55109 52.7751 2.09199 52.7751 1.52569C52.7751 0.95939 52.316 0.50029 51.7497 0.50029H49.5396C48.3654 0.50029 47.4132 1.45209 47.4132 2.62669V31.32C47.4132 38.1186 41.8634 43.6474 35.0569 43.6134C35.0511 43.6133 35.0453 43.6133 35.0394 43.6133C28.2725 43.5697 22.8263 37.9709 22.8263 31.1735V27.3108C22.8263 26.7445 22.3672 26.2854 21.8009 26.2854C21.2346 26.2854 20.7755 26.7445 20.7755 27.3108V31.1735C20.7755 38.7326 26.575 45.0529 34.0225 45.6225L34.0759 54.6428C21.7278 54.081 11.7733 43.6065 11.7733 31.1092V11.2034H20.7755V22.7547C20.7755 23.321 21.2346 23.7801 21.8009 23.7801C22.3672 23.7801 22.8263 23.321 22.8263 22.7547V10.1883C22.8264 10.1849 22.8264 10.1814 22.8264 10.178C22.8264 10.1745 22.8264 10.1711 22.8263 10.1677V2.62659C22.8263 1.45219 21.8743 0.50029 20.6999 0.50029H11.8488C10.6745 0.50029 9.72253 1.45229 9.72253 2.62659V31.1092C9.72253 45.0585 21.1252 56.7042 35.0961 56.7173C35.1019 56.7173 35.1078 56.7174 35.1136 56.7173ZM49.464 11.2034H58.4663V31.3199C58.4663 43.855 48.5339 54.1159 36.1268 54.6451L36.0734 45.633C43.5406 45.1406 49.464 38.9099 49.464 31.32V11.2034ZM11.7733 2.62659V9.15259H20.7755V2.62659C20.7755 2.58499 20.7418 2.55109 20.6999 2.55109H11.8488C11.8071 2.55109 11.7733 2.58489 11.7733 2.62659Z" fill="#2B4182"/>
<path d="M41.2552 11.8428H37.122L40.3531 5.62099C40.5792 5.18589 40.2634 4.66629 39.7731 4.66629H34.3445C33.8505 4.66629 33.3986 4.94479 33.1767 5.38599L28.4002 14.8841C28.1816 15.3187 28.4975 15.8313 28.984 15.8313H33.5388L31.5826 22.2134C31.3782 22.8799 32.22 23.3604 32.6902 22.8456L41.7377 12.9371C42.1207 12.5176 41.8231 11.8428 41.2552 11.8428Z" fill="#FDE265"/>
<path d="M40.3535 5.62159L37.1214 11.8427H34.6497C34.2847 11.8427 34.0496 11.4558 34.2178 11.1318L37.0792 5.62159C37.3049 5.18549 36.9902 4.66609 36.4991 4.66609H39.7734C40.2631 4.66609 40.5792 5.18549 40.3535 5.62159Z" fill="#FDD330"/>
<path d="M41.738 12.9367L32.6898 22.8458C32.2199 23.3608 31.3787 22.8796 31.582 22.2135L32.385 19.5953L38.4637 12.9367C38.8475 12.5175 38.5498 11.8428 37.9811 11.8428H41.2554C41.8226 11.8428 42.1204 12.5175 41.738 12.9367Z" fill="#FDD330"/>
<path fill-rule="evenodd" clip-rule="evenodd" d="M33.0473 20.9338L40.412 12.8682H37.122C36.7639 12.8682 36.4317 12.6813 36.2457 12.3751C36.0597 12.069 36.047 11.6881 36.212 11.3702L39.161 5.69168H34.3445C34.2379 5.69168 34.1406 5.75178 34.0928 5.84658L29.5873 14.8059H33.5388C33.864 14.8059 34.1699 14.9601 34.3633 15.2216C34.5566 15.4831 34.6145 15.8208 34.5192 16.1318L33.0473 20.9338ZM39.4433 5.14808C39.4434 5.14798 39.4432 5.14818 39.4433 5.14808ZM30.6022 21.9129C30.0769 23.6264 32.2404 24.8584 33.4473 23.5372L42.4948 13.6286C43.4788 12.5511 42.7145 10.8174 41.2552 10.8174H38.81L41.2629 6.09389C41.2629 6.09409 41.263 6.09379 41.2629 6.09389C41.8438 4.97579 41.032 3.64088 39.7732 3.64088H34.3445C33.4631 3.64088 32.6568 4.13768 32.2607 4.92518L27.4842 14.4233C26.9226 15.5398 27.7342 16.8567 28.984 16.8567H32.152L30.6022 21.9129Z" fill="#2B4182"/>
</g>
</svg>
